<svg width="457" height="34" viewBox="0 0 457 34" fill="none" xmlns="http://www.w3.org/2000/svg">
<rect width="457" height="34" rx="17" fill="#BCC99B"/>
<path d="M182.432 23V22.312L184.288 21.976L184.032 22.328V12.568L184.32 12.808H181.232L181.552 12.536L181.232 14.568H180.432V11.832H188.928V14.568H188.128L187.808 12.568L188.128 12.808H185.04L185.328 12.568V22.328L185.088 21.976L186.928 22.312V23H182.432ZM190.424 23V22.312L192.008 21.976L191.8 22.264V12.584L192.056 12.888L190.424 12.6V11.912L194.504 11.832V12.52L192.888 12.888L193.112 12.584V17.064L192.872 16.824H199.144L198.904 17.064V12.584L199.144 12.888L197.528 12.6V11.912L201.608 11.832V12.52L200.008 12.888L200.216 12.584V22.264L200.008 21.976L201.608 22.312V23H197.528V22.312L199.112 21.976L198.904 22.264V17.576L199.144 17.8H192.872L193.112 17.576V22.264L192.904 21.976L194.504 22.312V23H190.424ZM211.078 20.376H211.878V23H203.798V22.312L205.382 21.976L205.174 22.264V12.6L205.382 12.888L203.798 12.6V11.912L206.47 11.832H211.686V14.36H210.886L210.598 12.6L210.87 12.808H206.246L206.486 12.568V17.048L206.246 16.808H210.518V17.768H206.246L206.486 17.496V22.264L206.246 22.024H211.078L210.79 22.264L211.078 20.376ZM225.051 20.152H225.851V23H218.219V22.312L219.787 21.992L219.595 22.264V12.6L219.787 12.888L218.219 12.6V11.912L222.475 11.832V12.52L220.731 12.888L220.907 12.6V22.264L220.667 22.024H224.971L224.747 22.264L225.051 20.152ZM236.797 22.296L236.429 21.976L237.933 22.312V23H233.773V22.312L235.437 21.992L235.309 22.216L234.461 19.656L234.701 19.848H229.805L230.029 19.656L229.117 22.184L229.037 22.008L230.669 22.312V23H226.733V22.312L228.205 21.976L227.869 22.264L231.773 11.848L233.101 11.8L236.797 22.296ZM230.205 19.096L230.077 18.888H234.445L234.301 19.112L232.205 12.6L232.509 12.616L230.205 19.096ZM239.772 23V22.312L241.628 21.976L241.372 22.328V12.568L241.66 12.808H238.572L238.892 12.536L238.572 14.568H237.772V11.832H246.268V14.568H245.468L245.148 12.568L245.468 12.808H242.38L242.668 12.568V22.328L242.428 21.976L244.268 22.312V23H239.772ZM255.044 20.376H255.844V23H247.764V22.312L249.348 21.976L249.14 22.264V12.6L249.348 12.888L247.764 12.6V11.912L250.436 11.832H255.652V14.36H254.852L254.564 12.6L254.836 12.808H250.212L250.452 12.568V17.048L250.212 16.808H254.484V17.768H250.212L250.452 17.496V22.264L250.212 22.024H255.044L254.756 22.264L255.044 20.376ZM260.102 14.552C260.102 14.9573 260.208 15.288 260.422 15.544C260.635 15.8 260.918 16.0133 261.27 16.184C261.632 16.344 262.027 16.488 262.454 16.616C262.88 16.744 263.307 16.888 263.734 17.048C264.16 17.1973 264.55 17.3893 264.902 17.624C265.254 17.848 265.536 18.1467 265.75 18.52C265.974 18.8827 266.086 19.3413 266.086 19.896C266.086 20.6427 265.894 21.256 265.51 21.736C265.136 22.216 264.635 22.5733 264.006 22.808C263.376 23.032 262.688 23.144 261.942 23.144C261.408 23.144 260.864 23.0907 260.31 22.984C259.755 22.8667 259.211 22.696 258.678 22.472L258.774 19.848H259.558L259.83 21.896L259.67 21.624C260.043 21.7947 260.432 21.9227 260.838 22.008C261.243 22.0933 261.638 22.136 262.022 22.136C262.523 22.136 262.982 22.0613 263.398 21.912C263.814 21.752 264.15 21.5227 264.406 21.224C264.662 20.9147 264.79 20.5307 264.79 20.072C264.79 19.6453 264.678 19.304 264.454 19.048C264.24 18.7813 263.958 18.5627 263.606 18.392C263.254 18.2213 262.864 18.072 262.438 17.944C262.011 17.816 261.584 17.6827 261.158 17.544C260.731 17.3947 260.342 17.208 259.99 16.984C259.638 16.76 259.35 16.472 259.126 16.12C258.912 15.7573 258.806 15.2987 258.806 14.744C258.806 14.0613 258.971 13.496 259.302 13.048C259.643 12.5893 260.102 12.248 260.678 12.024C261.264 11.8 261.915 11.688 262.63 11.688C263.131 11.688 263.654 11.7413 264.198 11.848C264.742 11.9547 265.275 12.12 265.798 12.344L265.67 14.856H264.87L264.63 12.936L264.822 13.128C264.502 12.9893 264.155 12.8827 263.782 12.808C263.408 12.7333 263.035 12.696 262.662 12.696C262.224 12.696 261.808 12.76 261.414 12.888C261.019 13.0053 260.699 13.2027 260.454 13.48C260.219 13.7467 260.102 14.104 260.102 14.552ZM269.708 23V22.312L271.564 21.976L271.308 22.328V12.568L271.596 12.808H268.508L268.828 12.536L268.508 14.568H267.708V11.832H276.204V14.568H275.404L275.084 12.568L275.404 12.808H272.316L272.604 12.568V22.328L272.364 21.976L274.204 22.312V23H269.708Z" fill="white"/>
</svg>
