<svg width="421" height="78" viewBox="0 0 421 78" fill="none" xmlns="http://www.w3.org/2000/svg">
<path d="M22.208 15.328C25.0667 15.328 27.6907 15.776 30.08 16.672C32.512 17.5253 34.624 18.848 36.416 20.64C38.208 22.3893 39.616 24.6293 40.64 27.36C41.664 30.048 42.176 33.248 42.176 36.96C42.176 41.9947 41.2587 46.2187 39.424 49.632C37.632 53.0453 35.1573 55.6267 32 57.376C28.8427 59.1253 25.2373 60 21.184 60H3.136V57.248L9.536 55.904L8.64 57.056V18.4L9.536 19.616L3.136 18.4V15.648L15.168 15.328H22.208ZM21.376 56.096C23.3387 56.096 25.216 55.776 27.008 55.136C28.8 54.496 30.4213 53.472 31.872 52.064C33.3227 50.6133 34.4533 48.6933 35.264 46.304C36.1173 43.872 36.544 40.9067 36.544 37.408C36.544 33.952 36.1387 31.072 35.328 28.768C34.5173 26.4213 33.4293 24.5653 32.064 23.2C30.6987 21.792 29.1627 20.7893 27.456 20.192C25.7493 19.552 23.9573 19.232 22.08 19.232H12.928L13.888 18.272V57.056L12.928 56.096H21.376ZM80.7535 49.504H83.9535V60H51.6335V57.248L57.9695 55.904L57.1375 57.056V18.4L57.9695 19.552L51.6335 18.4V15.648L62.3215 15.328H83.1855V25.44H79.9855L78.8335 18.4L79.9215 19.232H61.4255L62.3855 18.272V36.192L61.4255 35.232H78.5135V39.072H61.4255L62.3855 37.984V57.056L61.4255 56.096H80.7535L79.6015 57.056L80.7535 49.504ZM130.507 57.184L129.035 55.904L135.051 57.248V60H118.411V57.248L125.067 55.968L124.555 56.864L121.163 46.624L122.123 47.392H102.539L103.435 46.624L99.787 56.736L99.467 56.032L105.995 57.248V60H90.251V57.248L96.139 55.904L94.795 57.056L110.411 15.392L115.723 15.2L130.507 57.184ZM104.139 44.384L103.627 43.552H121.099L120.523 44.448L112.139 18.4L113.355 18.464L104.139 44.384ZM139.128 60V57.248L145.464 55.904L144.632 57.056V18.4L145.72 19.616L139.128 18.4V15.648L150.072 15.328H157.56C162.382 15.328 166.03 16.3307 168.504 18.336C170.979 20.3413 172.216 23.2427 172.216 27.04C172.216 30.5387 171.107 33.3973 168.888 35.616C166.712 37.8347 163.384 39.1787 158.904 39.648L158.84 39.008C160.504 39.1787 161.848 39.5627 162.872 40.16C163.939 40.7147 164.835 41.4827 165.56 42.464C166.286 43.4027 166.99 44.576 167.672 45.984L173.048 56.864L171.448 55.776L176.824 57.248V60H168.952L163.064 47.392C162.254 45.5573 161.464 44.1493 160.696 43.168C159.971 42.144 159.054 41.4187 157.944 40.992C156.878 40.5653 155.342 40.352 153.336 40.352L148.92 40.416L149.88 39.52V57.056L149.048 55.904L156.472 57.248V60H139.128ZM149.88 37.984L148.92 36.576H155C158.798 36.576 161.72 35.808 163.768 34.272C165.816 32.6933 166.84 30.3893 166.84 27.36C166.84 24.7147 166.008 22.7093 164.344 21.344C162.68 19.936 160.206 19.232 156.92 19.232H148.92L149.88 18.272V37.984Z" fill="black"/>
<rect x="200" y="24" width="194" height="30" rx="15" fill="#C26522" fill-opacity="0.5"/>
<path d="M210.446 64.89C209.66 65.014 208.937 65.076 208.276 65.076C207.614 65.1173 206.643 64.9727 205.362 64.642C204.7 64.4353 204.225 64.1873 203.936 63.898C203.688 63.6087 203.254 63.0713 202.634 62.286C202.179 61.6247 201.848 61.0047 201.642 60.426C201.476 59.8887 201.456 59.4547 201.58 59.124C201.704 58.8347 201.972 58.752 202.386 58.876C202.51 58.9173 202.696 59.0413 202.944 59.248C203.233 59.496 203.502 59.7853 203.75 60.116C204.328 60.736 205.031 61.1493 205.858 61.356C206.684 61.5627 207.78 61.5833 209.144 61.418C209.722 61.294 210.425 61.108 211.252 60.86C212.078 60.6533 212.884 60.3847 213.67 60.054C214.455 59.7233 215.075 59.3927 215.53 59.062C217.72 57.574 219.477 56.396 220.8 55.528C222.122 54.66 222.784 54.226 222.784 54.226C222.866 54.0607 223.011 53.9367 223.218 53.854C223.466 53.73 223.755 53.606 224.086 53.482C224.334 53.234 224.726 52.8413 225.264 52.304C225.842 51.7667 226.38 51.2293 226.876 50.692C227.413 50.1547 227.744 49.8447 227.868 49.762C227.95 49.39 228.033 49.1007 228.116 48.894C228.198 48.646 228.24 48.398 228.24 48.15C228.57 47.8193 229.004 47.1373 229.542 46.104C230.12 45.0293 230.699 43.8513 231.278 42.57C231.856 41.2473 232.27 40.0487 232.518 38.974C233.096 36.0807 233.241 33.642 232.952 31.658C232.662 29.674 232.063 27.9793 231.154 26.574C230.286 25.1273 229.19 23.846 227.868 22.73C227.413 22.358 226.772 21.9653 225.946 21.552C225.16 21.0973 224.334 20.7047 223.466 20.374C222.598 20.0433 221.833 19.7747 221.172 19.568C220.552 19.3613 220.18 19.2787 220.056 19.32C219.89 19.3613 219.539 20.0227 219.002 21.304C218.506 22.544 217.906 24.1353 217.204 26.078C216.501 28.0207 215.736 30.0873 214.91 32.278C214.124 34.4687 213.38 36.5353 212.678 38.478C212.43 39.2633 212.161 40.09 211.872 40.958C211.582 41.826 211.334 42.5907 211.128 43.252C210.921 43.872 210.818 44.2853 210.818 44.492C210.363 45.1947 209.991 46.1247 209.702 47.282C209.454 48.4393 209.164 50.3613 208.834 53.048C208.462 54.4533 208.193 55.528 208.028 56.272C207.862 56.9747 207.697 57.3053 207.532 57.264C207.532 57.264 207.511 57.2847 207.47 57.326C207.47 57.326 207.408 57.388 207.284 57.512C207.284 57.76 207.118 57.884 206.788 57.884C206.457 57.884 206.064 57.8013 205.61 57.636C205.196 57.4293 204.866 57.202 204.618 56.954C204.494 56.4993 204.411 56.0653 204.37 55.652C204.37 55.2387 204.535 54.4327 204.866 53.234C205.072 52.4487 205.32 51.498 205.61 50.382C205.94 49.2247 206.292 48.0467 206.664 46.848C207.036 45.608 207.387 44.4713 207.718 43.438C208.048 42.4047 208.296 41.6193 208.462 41.082C208.751 40.3793 209.164 39.0567 209.702 37.114C210.032 36.0393 210.363 34.9647 210.694 33.89C211.066 32.8153 211.417 31.8647 211.748 31.038C212.078 30.17 212.306 29.612 212.43 29.364C212.636 28.8267 212.946 27.9173 213.36 26.636C213.773 25.3547 214.31 23.9287 214.972 22.358L215.406 20.312L214.724 20.002C214.228 20.1673 213.835 20.2293 213.546 20.188C213.298 20.1053 213.132 20.0433 213.05 20.002C212.802 20.0847 212.45 20.0227 211.996 19.816C211.541 19.6093 211.128 19.3407 210.756 19.01C210.425 18.6793 210.218 18.39 210.136 18.142C210.053 17.9767 209.991 17.77 209.95 17.522C209.95 17.2327 209.95 17.088 209.95 17.088C209.991 16.84 210.301 16.6127 210.88 16.406C211.458 16.158 212.202 15.9513 213.112 15.786C214.062 15.6207 215.075 15.5173 216.15 15.476C217.266 15.3933 218.34 15.3933 219.374 15.476C220.448 15.5587 221.461 15.786 222.412 16.158C223.362 16.53 224.396 16.9227 225.512 17.336C226.834 17.832 228.219 18.7 229.666 19.94C231.154 21.1387 232.497 22.5647 233.696 24.218C234.936 25.8713 235.762 27.6073 236.176 29.426C236.3 29.922 236.424 30.6247 236.548 31.534C236.672 32.4433 236.734 33.332 236.734 34.2C236.775 35.0267 236.692 35.564 236.486 35.812C236.403 35.9773 236.341 36.184 236.3 36.432C236.3 36.6387 236.382 36.7833 236.548 36.866C236.506 36.99 236.362 37.4653 236.114 38.292C235.866 39.0773 235.638 39.7593 235.432 40.338C235.349 41.4127 235.101 42.5287 234.688 43.686C234.274 44.8433 233.82 45.9387 233.324 46.972C232.828 47.964 232.373 48.8113 231.96 49.514C231.794 49.514 231.629 49.5553 231.464 49.638C231.34 49.6793 231.36 49.7207 231.526 49.762C231.526 49.9687 231.298 50.3613 230.844 50.94C230.678 51.064 230.41 51.374 230.038 51.87C229.707 52.3247 229.438 52.6347 229.232 52.8C229.19 53.0893 229.066 53.3373 228.86 53.544C228.653 53.7093 228.467 53.792 228.302 53.792C228.302 53.792 228.26 53.792 228.178 53.792C228.136 53.792 228.116 53.8747 228.116 54.04C227.785 54.536 227.268 55.1353 226.566 55.838C225.863 56.4993 225.057 57.202 224.148 57.946C223.28 58.6487 222.37 59.31 221.42 59.93C220.51 60.55 219.642 61.0253 218.816 61.356C218.402 61.6453 217.968 61.8727 217.514 62.038C217.059 62.2447 216.625 62.4513 216.212 62.658C216.005 62.8233 215.55 63.0507 214.848 63.34C214.145 63.6707 213.38 63.9807 212.554 64.27C211.768 64.5593 211.066 64.766 210.446 64.89ZM249.141 60.488C247.86 60.4053 246.723 60.0127 245.731 59.31C244.781 58.6073 243.768 57.884 242.693 57.14C241.991 56.4373 241.433 55.6933 241.019 54.908C240.606 54.0813 240.275 53.0067 240.027 51.684C239.862 50.8987 239.862 49.9067 240.027 48.708C240.193 47.5093 240.461 46.3107 240.833 45.112C241.205 43.872 241.557 42.88 241.887 42.136C242.383 40.9787 243.003 39.7387 243.747 38.416C244.533 37.052 245.297 35.7707 246.041 34.572C246.827 33.332 247.447 32.34 247.901 31.596C248.191 31.3067 248.315 31.162 248.273 31.162C248.273 31.1207 248.273 31.1 248.273 31.1C248.273 30.8933 248.48 30.3767 248.893 29.55C249.348 28.682 249.741 27.9173 250.071 27.256C250.691 26.5947 251.043 26.0573 251.125 25.644C251.208 25.2307 251.146 24.9 250.939 24.652C250.857 24.4867 251.001 24.1973 251.373 23.784C251.745 23.3707 252.303 22.8953 253.047 22.358C253.791 21.8207 254.639 21.2833 255.589 20.746C256.581 19.9607 257.532 19.5473 258.441 19.506C259.392 19.4233 259.95 19.6093 260.115 20.064C260.115 20.188 260.343 20.2293 260.797 20.188C261.293 20.1053 261.851 20.002 262.471 19.878C263.133 19.7127 263.711 19.5887 264.207 19.506C264.414 19.258 264.889 19.072 265.633 18.948C266.419 18.7827 267.328 18.638 268.361 18.514C268.899 18.5553 269.415 18.576 269.911 18.576C270.449 18.5347 270.883 18.4933 271.213 18.452C271.585 18.4107 271.771 18.39 271.771 18.39C272.061 18.3073 272.391 18.3487 272.763 18.514C273.177 18.6793 273.549 19.134 273.879 19.878C274.169 20.622 274.065 21.18 273.569 21.552C273.115 21.924 272.04 22.2133 270.345 22.42C269.105 22.5853 268.031 22.73 267.121 22.854C266.212 22.9367 265.261 23.0607 264.269 23.226C263.277 23.35 262.058 23.5773 260.611 23.908C259.578 24.1147 258.731 24.3627 258.069 24.652C257.408 24.9 256.829 25.2927 256.333 25.83C255.837 26.326 255.279 27.0493 254.659 28C254.37 28.2067 253.998 28.744 253.543 29.612C253.089 30.48 252.634 31.348 252.179 32.216C251.022 33.828 250.009 35.2333 249.141 36.432C248.315 37.5893 247.984 38.2713 248.149 38.478C248.149 38.478 248.377 38.54 248.831 38.664C249.286 38.788 249.596 38.85 249.761 38.85C250.175 38.6433 250.671 38.4987 251.249 38.416C251.869 38.3333 252.365 38.2507 252.737 38.168C255.3 37.5067 257.305 36.99 258.751 36.618C260.239 36.246 261.355 35.9773 262.099 35.812C262.885 35.6053 263.484 35.4813 263.897 35.44C264.476 34.9853 265.034 34.9027 265.571 35.192C266.15 35.4813 266.605 35.936 266.935 36.556C267.142 37.0107 267.142 37.4033 266.935 37.734C266.77 38.0647 266.253 38.3953 265.385 38.726C264.559 39.0567 263.319 39.4493 261.665 39.904C260.012 40.3587 257.842 40.958 255.155 41.702C252.882 42.3633 250.939 42.756 249.327 42.88C247.715 43.004 246.951 42.6527 247.033 41.826C246.744 41.6607 246.413 41.8673 246.041 42.446C245.711 42.9833 245.38 43.7273 245.049 44.678C244.719 45.6287 244.429 46.6413 244.181 47.716C243.975 48.7907 243.83 49.8033 243.747 50.754C243.706 51.6633 243.768 52.3453 243.933 52.8C244.264 53.7507 244.698 54.5153 245.235 55.094C245.773 55.6313 246.744 56.1067 248.149 56.52C248.976 56.5613 249.782 56.6233 250.567 56.706C251.353 56.7887 252.241 56.6233 253.233 56.21C255.672 55.7967 257.594 55.3627 258.999 54.908C260.405 54.4533 261.211 54.1433 261.417 53.978C261.748 53.8127 261.955 53.73 262.037 53.73C262.161 53.6887 262.327 53.668 262.533 53.668C262.409 53.8747 262.451 53.8953 262.657 53.73C262.905 53.5233 263.236 53.2133 263.649 52.8C264.104 52.3867 264.703 51.994 265.447 51.622C266.191 51.25 266.853 50.9607 267.431 50.754C268.051 50.5473 268.382 50.5473 268.423 50.754C268.671 51.1673 268.63 51.746 268.299 52.49C267.969 53.1927 267.369 53.978 266.501 54.846C265.633 55.6727 264.517 56.4787 263.153 57.264C260.963 58.4213 258.586 59.2273 256.023 59.682C253.461 60.178 251.167 60.4467 249.141 60.488ZM285.988 61.046C284.996 61.17 284.231 61.232 283.694 61.232C283.198 61.232 282.722 61.17 282.268 61.046C281.854 60.922 281.296 60.7567 280.594 60.55C280.015 60.178 279.519 59.8267 279.106 59.496C278.734 59.1653 278.444 58.9173 278.238 58.752C278.238 58.5453 278.176 58.38 278.052 58.256C277.969 58.132 277.928 58.07 277.928 58.07C277.762 58.07 277.618 57.7187 277.494 57.016C277.411 56.272 277.37 55.404 277.37 54.412C277.411 53.42 277.473 52.49 277.556 51.622C277.68 50.754 277.824 50.1753 277.99 49.886C277.99 49.6793 278.031 49.4313 278.114 49.142C278.238 48.8113 278.3 48.5427 278.3 48.336C278.3 47.6333 278.403 47.282 278.61 47.282C278.61 47.282 278.651 47.282 278.734 47.282C278.858 47.2407 278.92 47.158 278.92 47.034C278.92 46.786 279.002 46.4553 279.168 46.042C279.333 45.5873 279.457 45.174 279.54 44.802C279.746 44.43 279.994 43.7893 280.284 42.88C280.614 41.9707 280.924 41.1233 281.214 40.338C281.42 39.4287 281.71 38.5193 282.082 37.61C282.454 36.7007 282.722 35.9773 282.888 35.44C283.466 34.448 283.756 33.704 283.756 33.208C283.838 32.9187 284.107 32.2987 284.562 31.348C285.058 30.3973 285.616 29.2813 286.236 28C286.897 26.7187 287.558 25.4167 288.22 24.094C288.922 22.7713 289.542 21.614 290.08 20.622C290.658 19.63 291.092 18.948 291.382 18.576C292.043 17.7493 292.539 17.2327 292.87 17.026C293.2 16.8193 293.552 16.716 293.924 16.716C294.13 16.7987 294.378 16.9847 294.668 17.274C294.998 17.5633 295.308 17.8733 295.598 18.204C295.887 18.5347 296.052 18.824 296.094 19.072C296.094 19.1547 295.928 19.4647 295.598 20.002C295.267 20.5393 294.854 21.1387 294.358 21.8C293.862 22.4613 293.386 23.04 292.932 23.536C292.808 23.7013 292.725 23.846 292.684 23.97C292.684 24.094 292.684 24.156 292.684 24.156C292.684 24.156 292.539 24.404 292.25 24.9C292.002 25.3547 291.692 25.9333 291.32 26.636C290.948 27.2973 290.617 27.938 290.328 28.558C290.038 29.178 289.873 29.6327 289.832 29.922C289.584 30.2113 289.232 30.8107 288.778 31.72C288.364 32.588 287.951 33.5387 287.538 34.572C287.124 35.564 286.752 36.432 286.422 37.176C286.091 37.92 285.884 38.3333 285.802 38.416C285.802 38.6227 285.781 38.8293 285.74 39.036C285.74 39.2013 285.657 39.3873 285.492 39.594C285.368 39.8833 285.14 40.5447 284.81 41.578C284.52 42.57 284.107 43.6033 283.57 44.678C283.28 45.918 282.929 47.0133 282.516 47.964C282.102 48.9147 281.792 49.4933 281.586 49.7C281.42 50.1133 281.338 50.3613 281.338 50.444C281.338 50.4853 281.42 50.4853 281.586 50.444C281.792 50.2373 281.896 50.2167 281.896 50.382C281.896 50.506 281.792 50.7333 281.586 51.064C281.42 51.4773 281.276 51.9527 281.152 52.49C281.028 53.0273 280.966 53.5853 280.966 54.164C281.048 55.5693 281.255 56.4993 281.586 56.954C281.916 57.4087 282.598 57.6153 283.632 57.574C285.037 57.4913 286.339 57.3467 287.538 57.14C288.736 56.9333 289.708 56.7473 290.452 56.582C291.816 56.1273 292.994 55.9207 293.986 55.962C295.019 55.962 295.742 56.2307 296.156 56.768C296.404 57.14 296.548 57.4293 296.59 57.636C296.631 57.8427 296.652 58.0493 296.652 58.256C296.528 58.4213 296.032 58.6693 295.164 59C294.337 59.2893 293.345 59.5787 292.188 59.868C291.03 60.1987 289.873 60.4673 288.716 60.674C287.6 60.8807 286.69 61.0047 285.988 61.046ZM310.464 62.41C310.134 61.9967 309.452 61.7487 308.418 61.666C307.426 61.5833 306.207 61.604 304.76 61.728C304.182 61.8107 303.624 61.79 303.086 61.666C302.549 61.542 302.115 61.3353 301.784 61.046C301.454 60.7567 301.33 60.426 301.412 60.054C301.454 59.558 301.867 59.1653 302.652 58.876C303.438 58.5453 304.719 58.3387 306.496 58.256L309.782 58.07L310.402 56.768C310.526 56.3133 310.692 55.6727 310.898 54.846C311.146 54.0193 311.394 53.1307 311.642 52.18C311.808 51.6013 312.056 50.754 312.386 49.638C312.758 48.4807 313.151 47.2613 313.564 45.98C313.978 44.6987 314.35 43.5413 314.68 42.508C315.011 41.4747 315.197 40.772 315.238 40.4C315.404 40.028 315.631 39.346 315.92 38.354C316.21 37.362 316.499 36.3493 316.788 35.316C317.078 34.2413 317.264 33.4973 317.346 33.084C318.297 29.7773 318.917 27.4213 319.206 26.016C319.496 24.6107 319.558 23.908 319.392 23.908C319.227 23.908 318.814 23.9287 318.152 23.97C317.532 24.0113 316.83 24.094 316.044 24.218C315.3 24.3007 314.618 24.404 313.998 24.528C313.42 24.6107 313.089 24.6933 313.006 24.776C312.8 25.0653 312.448 25.148 311.952 25.024C311.456 24.8587 311.126 24.5693 310.96 24.156C310.919 23.784 310.898 23.4947 310.898 23.288C310.94 23.0813 311.043 22.916 311.208 22.792C311.498 22.544 312.035 22.2547 312.82 21.924C313.647 21.5933 314.577 21.2833 315.61 20.994C316.685 20.7047 317.698 20.4773 318.648 20.312C319.351 20.2293 320.054 20.064 320.756 19.816C321.459 19.5267 321.996 19.2167 322.368 18.886C322.74 18.7207 323.092 18.5967 323.422 18.514C323.794 18.4313 324.166 18.4107 324.538 18.452C324.869 18.6173 325.427 18.7 326.212 18.7C327.039 18.6587 327.907 18.5967 328.816 18.514C331.131 18.2247 332.702 18.1213 333.528 18.204C334.355 18.2453 334.913 18.5553 335.202 19.134C335.409 19.878 335.45 20.4773 335.326 20.932C335.244 21.3867 334.851 21.5933 334.148 21.552C333.776 21.676 333.094 21.7793 332.102 21.862C331.152 21.9447 330.139 22.0273 329.064 22.11C327.659 22.2753 326.543 22.4613 325.716 22.668C324.931 22.8333 324.497 22.9987 324.414 23.164C324.249 23.3293 324.104 23.4947 323.98 23.66C323.898 23.8253 323.774 24.0113 323.608 24.218C323.691 24.3833 323.629 24.9207 323.422 25.83C323.216 26.698 322.968 27.6073 322.678 28.558C322.513 29.0953 322.265 29.9013 321.934 30.976C321.604 32.0093 321.252 33.1047 320.88 34.262C320.55 35.4193 320.24 36.4733 319.95 37.424C319.661 38.3333 319.454 38.9327 319.33 39.222C319.206 39.594 319.082 40.0073 318.958 40.462C318.876 40.8753 318.834 41.1853 318.834 41.392C318.173 44.0787 317.553 46.3727 316.974 48.274C316.396 50.134 315.858 51.808 315.362 53.296C314.908 54.784 314.494 56.2927 314.122 57.822C314.122 57.822 314.432 57.8013 315.052 57.76C315.714 57.6773 316.582 57.5533 317.656 57.388C319.103 57.1813 320.24 57.0367 321.066 56.954C321.893 56.8713 322.513 56.8507 322.926 56.892C323.34 56.892 323.608 56.9747 323.732 57.14C323.898 57.264 324.042 57.4707 324.166 57.76C325.034 58.8347 325.158 59.5787 324.538 59.992C323.96 60.4053 322.513 60.6533 320.198 60.736C318.049 60.9013 316.396 61.0253 315.238 61.108C314.122 61.232 313.337 61.356 312.882 61.48C312.469 61.604 312.242 61.8107 312.2 62.1C312.2 62.3067 312.118 62.4513 311.952 62.534C311.828 62.658 311.622 62.6993 311.332 62.658C311.084 62.6167 310.795 62.534 310.464 62.41ZM348.666 60.302C346.971 60.7153 345.215 60.6947 343.396 60.24C341.619 59.7853 340.048 58.9793 338.684 57.822C337.32 56.6647 336.369 55.2593 335.832 53.606C335.667 53.1513 335.522 52.738 335.398 52.366C335.315 51.994 335.357 51.808 335.522 51.808C335.935 51.808 335.956 51.6013 335.584 51.188C335.46 51.0227 335.398 50.754 335.398 50.382C335.439 50.01 335.522 49.6587 335.646 49.328C335.811 48.9973 335.997 48.832 336.204 48.832C336.493 48.832 336.803 48.9353 337.134 49.142C337.465 49.3487 337.713 49.576 337.878 49.824C338.085 50.0307 338.105 50.196 337.94 50.32C337.94 50.32 338.023 50.5473 338.188 51.002C338.353 51.4153 338.395 51.9113 338.312 52.49C338.684 53.11 338.994 53.6267 339.242 54.04C339.49 54.412 340.007 54.8253 340.792 55.28C341.329 55.6933 341.805 56.0033 342.218 56.21C342.631 56.4167 343.355 56.5407 344.388 56.582C345.049 56.582 345.587 56.4993 346 56.334C346.413 56.1687 346.785 55.8793 347.116 55.466C347.488 55.0527 347.922 54.4947 348.418 53.792C348.542 53.0067 348.377 51.746 347.922 50.01C347.509 48.274 346.889 46.2487 346.062 43.934C345.235 41.578 344.243 39.1187 343.086 36.556C342.838 36.1013 342.611 35.626 342.404 35.13C342.239 34.634 342.156 34.386 342.156 34.386C342.28 33.6007 342.239 32.8773 342.032 32.216C341.784 32.0093 341.639 31.534 341.598 30.79C341.598 30.0047 341.557 29.302 341.474 28.682C341.557 27.7727 341.639 27.07 341.722 26.574C341.805 26.078 342.073 25.4993 342.528 24.838C343.727 23.102 345.194 21.6553 346.93 20.498C348.666 19.2993 350.877 18.4933 353.564 18.08C354.019 17.9973 354.597 17.956 355.3 17.956C356.003 17.9147 356.726 17.9353 357.47 18.018C358.214 18.0593 358.875 18.142 359.454 18.266C360.074 18.3487 360.529 18.4933 360.818 18.7C361.81 19.196 362.595 19.7333 363.174 20.312C363.753 20.8907 364.249 21.552 364.662 22.296C364.869 22.7507 364.993 23.102 365.034 23.35C365.117 23.5567 365.117 23.7633 365.034 23.97C364.951 24.1767 364.786 24.4867 364.538 24.9C364.331 25.148 363.98 25.4373 363.484 25.768C363.029 26.0987 362.492 26.4293 361.872 26.76C361.293 27.0907 360.673 27.4007 360.012 27.69C359.392 27.938 358.813 28.1033 358.276 28.186C357.904 28.3513 357.677 28.434 357.594 28.434C357.553 28.434 357.532 28.3513 357.532 28.186C357.656 27.938 357.677 27.752 357.594 27.628C357.553 27.504 357.532 27.442 357.532 27.442C356.995 27.442 356.871 27.2147 357.16 26.76C357.491 26.3053 358.049 25.6027 358.834 24.652C359.578 23.8253 360.053 23.2673 360.26 22.978C360.508 22.6473 360.529 22.3787 360.322 22.172C360.074 22.0067 359.578 21.8827 358.834 21.8C358.09 21.7173 357.284 21.6967 356.416 21.738C355.589 21.738 354.845 21.8 354.184 21.924C352.117 22.544 350.299 23.4327 348.728 24.59C347.199 25.7473 346.269 27.0287 345.938 28.434C345.649 29.054 345.504 29.612 345.504 30.108C345.545 30.604 345.731 31.3893 346.062 32.464C346.145 33.4973 346.227 34.3033 346.31 34.882C346.434 35.4607 346.496 35.7913 346.496 35.874C346.496 36.0393 346.537 36.2873 346.62 36.618C346.703 36.9073 346.765 37.4447 346.806 38.23C346.889 38.5193 347.095 38.912 347.426 39.408C347.757 39.8627 348.315 40.3793 349.1 40.958C349.183 41.8673 349.327 42.6527 349.534 43.314C349.782 43.934 349.927 44.5333 349.968 45.112C350.795 46.7653 351.415 48.4187 351.828 50.072C352.283 51.7253 352.551 53.0893 352.634 54.164C352.717 55.2387 352.613 55.776 352.324 55.776C352.283 55.776 352.262 55.838 352.262 55.962C352.262 56.086 352.283 56.148 352.324 56.148C352.324 56.396 352.179 56.706 351.89 57.078C351.601 57.45 351.249 57.8633 350.836 58.318C350.423 58.7313 350.009 59.1033 349.596 59.434C349.224 59.806 348.914 60.0953 348.666 60.302ZM366.385 64.146C366.385 64.146 366.323 64.1047 366.199 64.022C366.075 63.9807 365.91 63.9393 365.703 63.898C365.538 63.8567 365.331 63.836 365.083 63.836C364.422 63.6707 363.947 63.2987 363.657 62.72C363.368 62.1827 363.306 61.5833 363.471 60.922C363.637 60.7567 363.761 60.4053 363.843 59.868C363.926 59.3307 363.967 58.8967 363.967 58.566C364.133 58.2353 364.236 58.008 364.277 57.884C364.319 57.7187 364.422 57.3053 364.587 56.644C364.711 55.9413 364.918 54.97 365.207 53.73C365.538 52.4487 365.889 51.0847 366.261 49.638C366.675 48.1913 367.067 46.8067 367.439 45.484C367.811 44.1613 368.142 43.0453 368.431 42.136C368.762 41.2267 368.989 40.71 369.113 40.586C369.113 40.586 369.113 40.524 369.113 40.4C369.113 40.2347 369.113 40.0693 369.113 39.904C369.113 39.904 369.134 39.718 369.175 39.346C369.258 38.9327 369.465 38.478 369.795 37.982C369.961 37.5273 370.105 37.0313 370.229 36.494C370.353 35.9567 370.415 35.6053 370.415 35.44C370.581 35.2333 370.808 34.7373 371.097 33.952C371.428 33.1253 371.738 32.3193 372.027 31.534C372.275 30.8727 372.544 30.17 372.833 29.426C373.164 28.682 373.433 28.0413 373.639 27.504C373.887 26.9667 374.011 26.698 374.011 26.698C374.011 26.5327 374.011 26.45 374.011 26.45C374.011 26.4087 374.011 26.388 374.011 26.388C374.177 26.2227 374.569 25.396 375.189 23.908C375.851 22.3787 376.739 20.4153 377.855 18.018C378.021 17.6873 378.227 17.3153 378.475 16.902C378.723 16.4887 378.847 16.1993 378.847 16.034C379.054 15.7033 379.343 15.5587 379.715 15.6C380.087 15.6 380.459 15.724 380.831 15.972C381.245 16.22 381.555 16.5713 381.761 17.026L382.381 18.018L380.149 22.482C379.488 23.6393 378.93 24.6933 378.475 25.644C378.062 26.5947 377.855 27.1527 377.855 27.318C377.855 27.318 377.731 27.6487 377.483 28.31C377.235 28.9713 376.946 29.7567 376.615 30.666C376.285 31.5753 375.995 32.402 375.747 33.146C375.293 34.4273 374.859 35.4813 374.445 36.308C374.073 37.1347 373.887 37.6307 373.887 37.796C373.887 37.7133 374.342 37.6513 375.251 37.61C376.161 37.5687 377.318 37.548 378.723 37.548C380.129 37.548 381.555 37.548 383.001 37.548C384.489 37.5067 385.791 37.486 386.907 37.486C388.065 37.4447 388.85 37.3827 389.263 37.3L392.487 36.99L394.595 30.604C394.926 29.4467 395.36 28.0413 395.897 26.388C396.435 24.7347 396.91 23.3293 397.323 22.172C397.985 20.2707 398.501 19.0927 398.873 18.638C399.245 18.1833 399.679 17.956 400.175 17.956C400.299 17.956 400.465 17.9973 400.671 18.08C400.919 18.1213 401.147 18.2247 401.353 18.39C401.601 18.514 401.767 18.7 401.849 18.948C402.345 19.4027 402.573 19.9193 402.531 20.498C402.531 21.0767 402.201 21.8413 401.539 22.792C400.878 23.908 400.32 25.1273 399.865 26.45C399.452 27.7313 399.08 28.7853 398.749 29.612C398.749 30.108 398.687 30.5213 398.563 30.852C398.439 31.1413 398.295 31.3687 398.129 31.534C398.047 31.6167 397.881 31.9267 397.633 32.464C397.385 33.0013 397.158 33.5387 396.951 34.076C396.745 34.6133 396.641 34.944 396.641 35.068C396.641 35.3573 396.579 35.7087 396.455 36.122C396.331 36.5353 396.187 36.8247 396.021 36.99C395.939 37.238 395.753 37.858 395.463 38.85C395.174 39.842 394.843 41.02 394.471 42.384C394.099 43.7067 393.707 45.0087 393.293 46.29C392.88 47.53 392.508 48.5633 392.177 49.39C392.177 49.6793 392.074 50.0513 391.867 50.506C391.661 50.9193 391.557 51.2913 391.557 51.622C391.392 52.118 391.185 52.738 390.937 53.482C390.689 54.226 390.565 54.7013 390.565 54.908C390.359 55.8587 390.131 56.83 389.883 57.822C389.677 58.814 389.491 59.6613 389.325 60.364C389.201 61.108 389.139 61.542 389.139 61.666C388.974 61.8313 388.726 61.852 388.395 61.728C388.065 61.604 387.672 61.4593 387.217 61.294C386.432 60.8393 385.957 60.3433 385.791 59.806C385.667 59.31 385.833 58.5867 386.287 57.636C386.494 57.3053 386.742 56.4993 387.031 55.218C387.362 53.8953 387.693 52.5933 388.023 51.312C388.271 50.692 388.54 49.8653 388.829 48.832C389.119 47.7573 389.408 46.6827 389.697 45.608C389.987 44.492 390.235 43.562 390.441 42.818C390.648 42.0327 390.793 41.5987 390.875 41.516C390.875 41.3507 390.875 41.206 390.875 41.082C390.875 40.958 390.875 40.896 390.875 40.896C390.793 40.8133 390.276 40.7513 389.325 40.71C388.375 40.6273 387.197 40.6067 385.791 40.648C384.386 40.648 382.919 40.6893 381.389 40.772C379.901 40.8133 378.558 40.9167 377.359 41.082C376.905 41.082 376.388 41.082 375.809 41.082C375.231 41.082 374.776 41.082 374.445 41.082C373.991 41.082 373.598 41.082 373.267 41.082C372.978 41.082 372.833 41.082 372.833 41.082C372.792 41.206 372.647 41.64 372.399 42.384C372.151 43.128 371.862 44.0373 371.531 45.112C371.201 46.1453 370.849 47.22 370.477 48.336C370.147 49.4107 369.857 50.4027 369.609 51.312C369.403 52.18 369.258 52.8 369.175 53.172C369.01 53.916 368.783 54.846 368.493 55.962C368.245 57.078 367.956 58.2147 367.625 59.372C367.336 60.5707 367.067 61.604 366.819 62.472C366.613 63.34 366.468 63.898 366.385 64.146Z" fill="black"/>
</svg>
