<svg width="197" height="53" viewBox="0 0 197 53" fill="none" xmlns="http://www.w3.org/2000/svg">
<path d="M11.3927 11.4188C12.8593 11.4188 14.2055 11.7258 15.4312 12.3399C16.6789 12.9247 17.7624 13.8312 18.6817 15.0593C19.6011 16.2582 20.3234 17.7934 20.8487 19.6648C21.3741 21.5071 21.6367 23.7002 21.6367 26.2442C21.6367 29.6946 21.1661 32.5895 20.2249 34.9288C19.3056 37.2682 18.036 39.0373 16.4162 40.2362C14.7965 41.4351 12.9468 42.0345 10.8674 42.0345H1.6084V40.1484L4.89173 39.2273L4.43207 40.0168V13.5242L4.89173 14.3575L1.6084 13.5242V11.6381L7.78107 11.4188H11.3927ZM10.9659 39.3589C11.9728 39.3589 12.9359 39.1396 13.8552 38.701C14.7746 38.2624 15.6063 37.5606 16.3506 36.5956C17.0948 35.6014 17.6748 34.2855 18.0907 32.648C18.5285 30.9813 18.7474 28.949 18.7474 26.5512C18.7474 24.1826 18.5395 22.2088 18.1236 20.6298C17.7077 19.0215 17.1495 17.7495 16.4491 16.8138C15.7486 15.8488 14.9606 15.1617 14.0851 14.7523C13.2095 14.3137 12.2902 14.0944 11.3271 14.0944H6.6319L7.1244 13.4364V40.0168L6.6319 39.3589H10.9659ZM41.4278 34.8411H43.0695V42.0345H26.4887V40.1484L29.7392 39.2273L29.3123 40.0168V13.5242L29.7392 14.3137L26.4887 13.5242V11.6381L31.9718 11.4188H42.6755V18.349H41.0338L40.4428 13.5242L41.001 14.0944H31.5122L32.0047 13.4364V25.7178L31.5122 25.0599H40.2787V27.6916H31.5122L32.0047 26.946V40.0168L31.5122 39.3589H41.4278L40.8368 40.0168L41.4278 34.8411ZM66.9523 40.1046L66.1972 39.2273L69.2835 40.1484V42.0345H60.7468V40.1484L64.1615 39.2712L63.8988 39.8853L62.1587 32.8673L62.6512 33.3937H52.6042L53.0638 32.8673L51.1923 39.7975L51.0282 39.3151L54.3772 40.1484V42.0345H46.3002V40.1484L49.3208 39.2273L48.6313 40.0168L56.6427 11.4626L59.3678 11.3311L66.9523 40.1046ZM53.425 31.3322L53.1623 30.762H62.1258L61.8303 31.376L57.5292 13.5242L58.153 13.568L53.425 31.3322ZM71.3754 42.0345V40.1484L74.6259 39.2273L74.1991 40.0168V13.5242L74.7572 14.3575L71.3754 13.5242V11.6381L76.9899 11.4188H80.8314C83.3048 11.4188 85.1764 12.106 86.4459 13.4803C87.7155 14.8546 88.3502 16.8431 88.3502 19.4455C88.3502 21.8433 87.7811 23.8025 86.6429 25.3231C85.5266 26.8436 83.8192 27.7647 81.5209 28.0864L81.4881 27.6477C82.3417 27.7647 83.0312 28.0279 83.5566 28.4373C84.1038 28.8174 84.5635 29.3437 84.9356 30.0163C85.3077 30.6596 85.6689 31.4637 86.0191 32.4287L88.7771 39.8853L87.9562 39.1396L90.7142 40.1484V42.0345H86.6757L83.6551 33.3937C83.2392 32.1363 82.8342 31.1713 82.4402 30.4988C82.0681 29.797 81.5975 29.2999 81.0284 29.0075C80.4812 28.7151 79.6932 28.5688 78.6644 28.5688L76.3989 28.6127L76.8914 27.9986V40.0168L76.4646 39.2273L80.2732 40.1484V42.0345H71.3754ZM76.8914 26.946L76.3989 25.981H79.5181C81.4662 25.981 82.9656 25.4546 84.0162 24.402C85.0669 23.32 85.5922 21.741 85.5922 19.6648C85.5922 17.8519 85.1654 16.4775 84.3117 15.5418C83.4581 14.5768 82.1885 14.0944 80.5031 14.0944H76.3989L76.8914 13.4364V26.946Z" fill="black"/>
<path d="M185.372 18.2759H110.129C106.729 18.2759 103.973 21.958 103.973 26.5C103.973 31.0421 106.729 34.7242 110.129 34.7242H185.372C188.772 34.7242 191.528 31.0421 191.528 26.5C191.528 21.958 188.772 18.2759 185.372 18.2759Z" fill="#C26522" fill-opacity="0.5"/>
<path d="M102.82 44.0265C102.439 44.1069 102.088 44.1471 101.767 44.1471C101.446 44.174 100.974 44.0801 100.352 43.8657C100.031 43.7317 99.8004 43.5709 99.6599 43.3832C99.5395 43.1955 99.3288 42.8472 99.0279 42.3378C98.8072 41.9089 98.6467 41.5068 98.5463 41.1316C98.4661 40.7831 98.456 40.5016 98.5162 40.2873C98.5764 40.0996 98.7069 40.046 98.9075 40.1264C98.9677 40.1533 99.058 40.2337 99.1783 40.3677C99.3188 40.5285 99.4492 40.7162 99.5696 40.9306C99.8506 41.3326 100.192 41.6007 100.593 41.7347C100.994 41.8687 101.526 41.8822 102.188 41.7749C102.469 41.6945 102.81 41.5739 103.211 41.4131C103.613 41.2791 104.004 41.1047 104.385 40.8904C104.766 40.676 105.067 40.4614 105.288 40.2471C106.352 39.2821 107.204 38.5182 107.846 37.9553C108.489 37.3924 108.809 37.1109 108.809 37.1109C108.85 37.0036 108.92 36.9232 109.02 36.8697C109.141 36.7893 109.281 36.7088 109.441 36.6284C109.562 36.4676 109.753 36.213 110.013 35.8645C110.294 35.516 110.555 35.1676 110.796 34.8191C111.057 34.4706 111.217 34.2696 111.277 34.216C111.318 33.9748 111.358 33.7871 111.398 33.6531C111.438 33.4923 111.458 33.3315 111.458 33.1706C111.619 32.9563 111.829 32.514 112.09 31.8438C112.371 31.147 112.652 30.383 112.933 29.552C113.214 28.6943 113.414 27.9169 113.535 27.22C113.816 25.3436 113.886 23.7622 113.745 22.4756C113.605 21.189 113.314 20.0901 112.873 19.1786C112.451 18.2405 111.92 17.4095 111.277 16.6858C111.057 16.4446 110.746 16.1899 110.344 15.9219C109.963 15.627 109.562 15.3724 109.141 15.158C108.719 14.9435 108.348 14.7693 108.027 14.6353C107.726 14.5012 107.545 14.4476 107.485 14.4744C107.405 14.5012 107.234 14.9301 106.974 15.7611C106.733 16.5652 106.442 17.5972 106.101 18.857C105.76 20.1167 105.389 21.4571 104.987 22.8777C104.606 24.2983 104.245 25.6386 103.904 26.8984C103.783 27.4077 103.653 27.9437 103.512 28.5066C103.372 29.0695 103.252 29.5654 103.151 29.9943C103.051 30.3964 103.001 30.6645 103.001 30.7984C102.78 31.2541 102.599 31.8572 102.459 32.6077C102.339 33.3583 102.198 34.6047 102.038 36.347C101.857 37.2584 101.727 37.9553 101.646 38.4377C101.566 38.8934 101.486 39.1079 101.406 39.0811C101.406 39.0811 101.396 39.0944 101.375 39.1213C101.375 39.1213 101.345 39.1615 101.285 39.2419C101.285 39.4027 101.205 39.4831 101.044 39.4831C100.884 39.4831 100.693 39.4296 100.473 39.3223C100.272 39.1883 100.111 39.0408 99.991 38.88C99.9308 38.5852 99.8907 38.3038 99.8706 38.0357C99.8706 37.7676 99.9509 37.2449 100.111 36.4676C100.212 35.9583 100.332 35.3418 100.473 34.6181C100.633 33.8675 100.804 33.1036 100.984 32.3263C101.165 31.5222 101.335 30.7851 101.496 30.1149C101.656 29.4447 101.777 28.9356 101.857 28.5871C101.997 28.1314 102.198 27.2736 102.459 26.0138C102.62 25.317 102.78 24.6199 102.94 23.9231C103.121 23.2262 103.292 22.6096 103.452 22.0735C103.613 21.5106 103.723 21.1488 103.783 20.988C103.884 20.6394 104.034 20.0499 104.235 19.2188C104.435 18.3878 104.696 17.4631 105.017 16.4446L105.228 15.1177L104.897 14.9167C104.656 15.0239 104.465 15.0641 104.325 15.0373C104.205 14.9837 104.124 14.9435 104.084 14.9167C103.964 14.9703 103.793 14.9301 103.573 14.7961C103.352 14.6621 103.151 14.4878 102.971 14.2734C102.81 14.059 102.71 13.8713 102.67 13.7105C102.63 13.6033 102.599 13.4693 102.579 13.3084C102.579 13.1208 102.579 13.027 102.579 13.027C102.599 12.8662 102.75 12.7187 103.031 12.5847C103.312 12.4239 103.673 12.2899 104.114 12.1826C104.576 12.0754 105.067 12.0084 105.589 11.9816C106.131 11.928 106.653 11.928 107.154 11.9816C107.676 12.0352 108.167 12.1826 108.629 12.4239C109.09 12.6651 109.592 12.9198 110.134 13.1878C110.776 13.5095 111.448 14.0724 112.15 14.8765C112.873 15.6538 113.525 16.5786 114.107 17.6508C114.709 18.723 115.11 19.8488 115.31 21.0282C115.371 21.3498 115.431 21.8054 115.491 22.3952C115.551 22.985 115.581 23.5612 115.581 24.1241C115.601 24.6601 115.561 25.0086 115.461 25.1695C115.421 25.2767 115.391 25.4107 115.371 25.5715C115.371 25.7055 115.411 25.7994 115.491 25.853C115.471 25.9334 115.401 26.2417 115.28 26.7777C115.16 27.2871 115.05 27.7294 114.949 28.1046C114.909 28.8014 114.789 29.5252 114.588 30.2757C114.388 31.0263 114.167 31.7365 113.926 32.4067C113.685 33.05 113.465 33.5996 113.264 34.0552C113.184 34.0552 113.103 34.0821 113.023 34.1356C112.963 34.1625 112.973 34.1892 113.053 34.216C113.053 34.35 112.943 34.6047 112.722 34.9799C112.642 35.0604 112.511 35.2614 112.331 35.5831C112.17 35.8778 112.04 36.0789 111.94 36.1862C111.92 36.3738 111.859 36.5347 111.759 36.6686C111.659 36.7759 111.568 36.8295 111.488 36.8295C111.488 36.8295 111.468 36.8295 111.428 36.8295C111.408 36.8295 111.398 36.883 111.398 36.9903C111.237 37.312 110.987 37.7007 110.645 38.1563C110.304 38.5852 109.913 39.0408 109.472 39.5233C109.05 39.9789 108.609 40.4079 108.147 40.81C107.706 41.212 107.285 41.5203 106.883 41.7347C106.683 41.9224 106.472 42.0697 106.251 42.177C106.031 42.3109 105.82 42.4451 105.619 42.5791C105.519 42.6863 105.298 42.8336 104.957 43.0213C104.616 43.2357 104.245 43.4367 103.843 43.6244C103.462 43.8121 103.121 43.9461 102.82 44.0265ZM121.605 41.1718C120.983 41.1183 120.431 40.8635 119.949 40.4079C119.488 39.9523 118.996 39.4831 118.474 39.0006C118.133 38.545 117.862 38.0625 117.662 37.5532C117.461 37.0172 117.301 36.3201 117.18 35.4624C117.1 34.9531 117.1 34.3098 117.18 33.5325C117.26 32.7552 117.391 31.9778 117.572 31.2005C117.752 30.3964 117.923 29.7531 118.083 29.2706C118.324 28.52 118.625 27.7158 118.986 26.8582C119.367 25.9736 119.739 25.1426 120.1 24.3653C120.481 23.5612 120.782 22.9179 121.003 22.4354C121.143 22.2477 121.203 22.154 121.183 22.154C121.183 22.1271 121.183 22.1137 121.183 22.1137C121.183 21.9798 121.284 21.6446 121.484 21.1086C121.705 20.5457 121.895 20.0499 122.056 19.6209C122.357 19.192 122.528 18.8436 122.568 18.5755C122.608 18.3074 122.578 18.0931 122.477 17.9322C122.437 17.825 122.508 17.6374 122.688 17.3693C122.869 17.1013 123.14 16.793 123.501 16.4446C123.862 16.0961 124.273 15.7477 124.735 15.3992C125.216 14.8899 125.678 14.6219 126.119 14.5951C126.581 14.5415 126.852 14.6621 126.932 14.9569C126.932 15.0373 127.042 15.0641 127.263 15.0373C127.504 14.9837 127.775 14.9167 128.076 14.8363C128.396 14.7291 128.677 14.6487 128.918 14.5951C129.019 14.4342 129.249 14.3136 129.61 14.2332C129.992 14.126 130.433 14.0322 130.935 13.9517C131.195 13.9786 131.446 13.992 131.687 13.992C131.948 13.9651 132.159 13.9383 132.319 13.9115C132.5 13.8847 132.59 13.8713 132.59 13.8713C132.73 13.8177 132.891 13.8445 133.072 13.9517C133.272 14.059 133.453 14.3538 133.613 14.8363C133.754 15.3188 133.704 15.6806 133.463 15.9219C133.242 16.1631 132.72 16.3508 131.898 16.4848C131.296 16.592 130.774 16.6858 130.333 16.7662C129.891 16.8198 129.43 16.9002 128.948 17.0075C128.467 17.0879 127.875 17.2353 127.173 17.4497C126.671 17.5838 126.26 17.7446 125.939 17.9322C125.618 18.0931 125.337 18.3476 125.096 18.6962C124.855 19.0178 124.584 19.487 124.283 20.1034C124.143 20.2374 123.962 20.5859 123.742 21.1488C123.521 21.7117 123.3 22.2746 123.079 22.8375C122.518 23.8828 122.026 24.7943 121.605 25.5715C121.203 26.3221 121.043 26.7644 121.123 26.8984C121.123 26.8984 121.233 26.9386 121.454 27.019C121.675 27.0994 121.825 27.1396 121.906 27.1396C122.106 27.0056 122.347 26.9117 122.628 26.8582C122.929 26.8046 123.17 26.7509 123.35 26.6973C124.594 26.2684 125.567 25.9334 126.27 25.6922C126.992 25.4509 127.534 25.2767 127.895 25.1695C128.276 25.0355 128.567 24.9551 128.768 24.9282C129.049 24.6334 129.319 24.5797 129.58 24.7674C129.861 24.9551 130.082 25.2499 130.243 25.652C130.343 25.9467 130.343 26.2015 130.243 26.4159C130.162 26.6303 129.911 26.8448 129.49 27.0592C129.089 27.2736 128.487 27.5283 127.684 27.8231C126.882 28.1179 125.828 28.5066 124.524 28.9891C123.42 29.4181 122.477 29.6726 121.695 29.7531C120.912 29.8335 120.541 29.6056 120.581 29.0695C120.441 28.9623 120.28 29.0964 120.1 29.4716C119.939 29.8201 119.779 30.3026 119.618 30.9191C119.458 31.5355 119.317 32.1923 119.197 32.8892C119.096 33.5861 119.026 34.2429 118.986 34.8593C118.966 35.4491 118.996 35.8914 119.076 36.1862C119.237 36.8026 119.448 37.2986 119.708 37.6738C119.969 38.0223 120.441 38.3305 121.123 38.5986C121.524 38.6254 121.916 38.6656 122.297 38.7192C122.678 38.7727 123.109 38.6656 123.591 38.3975C124.775 38.1294 125.708 37.848 126.39 37.5532C127.072 37.2584 127.463 37.0574 127.564 36.9501C127.724 36.8428 127.825 36.7893 127.865 36.7893C127.925 36.7624 128.005 36.7491 128.106 36.7491C128.045 36.883 128.065 36.8965 128.166 36.7893C128.286 36.6553 128.447 36.4543 128.647 36.1862C128.868 35.9181 129.159 35.6635 129.52 35.4222C129.881 35.181 130.202 34.9933 130.483 34.8593C130.784 34.7254 130.945 34.7254 130.965 34.8593C131.085 35.1274 131.065 35.5026 130.905 35.9851C130.744 36.4407 130.453 36.9501 130.032 37.513C129.61 38.049 129.069 38.5717 128.407 39.0811C127.343 39.8316 126.189 40.3543 124.945 40.6491C123.701 40.9708 122.588 41.1449 121.605 41.1718ZM139.491 41.5337C139.009 41.6141 138.638 41.6543 138.377 41.6543C138.136 41.6543 137.906 41.6141 137.685 41.5337C137.485 41.4533 137.214 41.346 136.872 41.212C136.592 40.9708 136.351 40.7429 136.15 40.5285C135.97 40.3141 135.829 40.1533 135.729 40.046C135.729 39.9121 135.699 39.8048 135.639 39.7244C135.599 39.644 135.579 39.6037 135.579 39.6037C135.498 39.6037 135.428 39.3758 135.368 38.9202C135.328 38.4377 135.308 37.8748 135.308 37.2315C135.328 36.5882 135.358 35.9851 135.398 35.4222C135.458 34.8593 135.528 34.4841 135.609 34.2964C135.609 34.1625 135.629 34.0016 135.669 33.814C135.729 33.5996 135.759 33.4252 135.759 33.2913C135.759 32.8356 135.809 32.6077 135.91 32.6077C135.91 32.6077 135.93 32.6077 135.97 32.6077C136.03 32.5809 136.06 32.5273 136.06 32.4469C136.06 32.2861 136.1 32.0717 136.181 31.8036C136.261 31.5088 136.321 31.2407 136.361 30.9995C136.461 30.7582 136.582 30.3428 136.722 29.7531C136.883 29.1633 137.034 28.6139 137.173 28.1046C137.274 27.5148 137.414 26.9252 137.595 26.3355C137.775 25.7457 137.906 25.2767 137.986 24.9282C138.268 24.2849 138.407 23.8024 138.407 23.4808C138.448 23.2931 138.578 22.891 138.798 22.2746C139.039 21.6581 139.31 20.9344 139.611 20.1034C139.933 19.2724 140.254 18.4281 140.574 17.5704C140.916 16.7126 141.217 15.9621 141.477 15.3188C141.759 14.6755 141.97 14.2332 142.109 13.992C142.431 13.4559 142.671 13.1208 142.831 12.9868C142.993 12.8528 143.163 12.7857 143.343 12.7857C143.444 12.8393 143.565 12.96 143.704 13.1476C143.866 13.3352 144.016 13.5363 144.156 13.7507C144.297 13.9651 144.377 14.1528 144.397 14.3136C144.397 14.3672 144.317 14.5682 144.156 14.9167C143.996 15.2652 143.795 15.6538 143.554 16.0827C143.313 16.5116 143.083 16.8868 142.862 17.2085C142.801 17.3157 142.762 17.4095 142.741 17.49C142.741 17.5704 142.741 17.6106 142.741 17.6106C142.741 17.6106 142.671 17.7714 142.531 18.0931C142.41 18.3878 142.26 18.7632 142.079 19.2188C141.898 19.6478 141.738 20.0632 141.598 20.4653C141.458 20.8673 141.377 21.1621 141.357 21.3498C141.236 21.5375 141.067 21.9261 140.845 22.5158C140.645 23.0787 140.444 23.6952 140.243 24.3653C140.043 25.0086 139.863 25.5715 139.701 26.054C139.541 26.5365 139.441 26.8046 139.4 26.8582C139.4 26.9921 139.391 27.1263 139.37 27.2602C139.37 27.3675 139.331 27.4881 139.25 27.6221C139.19 27.8098 139.08 28.2385 138.919 28.9087C138.779 29.552 138.578 30.2222 138.317 30.9191C138.177 31.7232 138.006 32.4336 137.805 33.05C137.606 33.6665 137.455 34.0419 137.354 34.1758C137.274 34.4439 137.233 34.6047 137.233 34.6583C137.233 34.6852 137.274 34.6852 137.354 34.6583C137.455 34.5243 137.504 34.5108 137.504 34.6181C137.504 34.6985 137.455 34.846 137.354 35.0604C137.274 35.3285 137.203 35.6366 137.143 35.9851C137.083 36.3336 137.053 36.6955 137.053 37.0707C137.094 37.9821 137.194 38.5852 137.354 38.88C137.515 39.1748 137.846 39.309 138.347 39.2821C139.03 39.2285 139.662 39.1346 140.243 39.0006C140.826 38.8667 141.297 38.7461 141.658 38.6388C142.32 38.344 142.892 38.2098 143.373 38.2367C143.875 38.2367 144.227 38.4109 144.427 38.7594C144.547 39.0006 144.618 39.1883 144.637 39.3223C144.658 39.4563 144.667 39.5904 144.667 39.7244C144.607 39.8316 144.366 39.9925 143.945 40.2068C143.544 40.3945 143.063 40.5821 142.5 40.7697C141.94 40.9841 141.377 41.1585 140.815 41.2924C140.273 41.4264 139.833 41.5068 139.491 41.5337ZM151.374 42.4182C151.212 42.1501 150.881 41.9893 150.38 41.9357C149.899 41.8822 149.306 41.8955 148.605 41.976C148.323 42.0295 148.052 42.0162 147.792 41.9357C147.531 41.8553 147.32 41.7214 147.16 41.5337C146.999 41.346 146.938 41.1316 146.979 40.8904C146.999 40.5687 147.2 40.3141 147.581 40.1264C147.962 39.9121 148.584 39.7779 149.447 39.7244L151.043 39.6037L151.344 38.7594C151.404 38.4646 151.483 38.049 151.584 37.513C151.705 36.977 151.825 36.4005 151.945 35.7841C152.025 35.4089 152.145 34.8593 152.307 34.1356C152.487 33.385 152.677 32.5944 152.878 31.7634C153.078 30.9324 153.259 30.182 153.42 29.5118C153.58 28.8416 153.671 28.386 153.691 28.1448C153.77 27.9035 153.881 27.4613 154.022 26.818C154.162 26.1746 154.303 25.518 154.444 24.8478C154.583 24.151 154.673 23.6685 154.714 23.4004C155.175 21.2561 155.476 19.7282 155.617 18.8168C155.757 17.9054 155.787 17.4497 155.708 17.4497C155.627 17.4497 155.426 17.4631 155.106 17.49C154.805 17.5168 154.463 17.5704 154.082 17.6508C153.721 17.7044 153.39 17.7714 153.089 17.8518C152.807 17.9054 152.647 17.959 152.608 18.0126C152.506 18.2003 152.337 18.2539 152.096 18.1735C151.855 18.0662 151.694 17.8786 151.614 17.6106C151.594 17.3693 151.584 17.1817 151.584 17.0477C151.603 16.9137 151.654 16.8064 151.735 16.726C151.874 16.5652 152.136 16.3776 152.517 16.1631C152.918 15.9487 153.37 15.7477 153.872 15.56C154.393 15.3724 154.884 15.225 155.346 15.1177C155.687 15.0641 156.028 14.9569 156.37 14.7961C156.71 14.6085 156.972 14.4074 157.152 14.193C157.333 14.0858 157.503 14.0053 157.664 13.9517C157.845 13.8981 158.025 13.8847 158.206 13.9115C158.366 14.0188 158.637 14.0724 159.018 14.0724C159.419 14.0456 159.841 14.0053 160.282 13.9517C161.406 13.7641 162.168 13.6971 162.57 13.7507C162.971 13.7775 163.242 13.9786 163.382 14.3538C163.482 14.8363 163.503 15.225 163.443 15.5198C163.402 15.8147 163.211 15.9487 162.871 15.9219C162.69 16.0023 162.359 16.0693 161.878 16.1229C161.415 16.1765 160.924 16.2301 160.403 16.2837C159.72 16.391 159.178 16.5116 158.778 16.6456C158.396 16.7528 158.185 16.86 158.146 16.9673C158.065 17.0745 157.995 17.1817 157.935 17.2889C157.894 17.3961 157.834 17.5168 157.754 17.6508C157.794 17.758 157.764 18.1065 157.664 18.6962C157.563 19.2591 157.442 19.8488 157.303 20.4653C157.222 20.8138 157.102 21.3365 156.942 22.0333C156.78 22.7035 156.611 23.4137 156.43 24.1643C156.269 24.9149 156.118 25.5984 155.979 26.2148C155.838 26.8046 155.738 27.1932 155.678 27.3808C155.617 27.6221 155.557 27.8902 155.497 28.185C155.456 28.4531 155.437 28.6541 155.437 28.7881C155.115 30.5303 154.814 32.018 154.534 33.2511C154.252 34.4573 153.992 35.5428 153.751 36.5078C153.53 37.4728 153.33 38.4511 153.149 39.4429C153.149 39.4429 153.3 39.4296 153.601 39.4027C153.921 39.3492 154.342 39.2687 154.865 39.1615C155.567 39.0275 156.118 38.9336 156.52 38.88C156.921 38.8265 157.222 38.813 157.423 38.8398C157.623 38.8398 157.754 38.8934 157.814 39.0006C157.894 39.0811 157.965 39.215 158.025 39.4027C158.446 40.0996 158.507 40.5821 158.206 40.8502C157.924 41.1183 157.222 41.2791 156.099 41.3326C155.055 41.4399 154.252 41.5203 153.691 41.5739C153.149 41.6543 152.768 41.7347 152.547 41.8151C152.346 41.8955 152.236 42.0295 152.216 42.2172C152.216 42.3512 152.175 42.4451 152.096 42.4986C152.036 42.5791 151.935 42.6059 151.795 42.5791C151.675 42.5522 151.534 42.4986 151.374 42.4182ZM169.918 41.0512C169.095 41.3193 168.242 41.3058 167.359 41.011C166.496 40.7162 165.734 40.1935 165.072 39.4429C164.41 38.6923 163.949 37.7811 163.688 36.7088C163.607 36.4141 163.537 36.146 163.477 35.9047C163.437 35.6635 163.456 35.5428 163.537 35.5428C163.738 35.5428 163.748 35.4089 163.567 35.1408C163.507 35.0335 163.477 34.8593 163.477 34.6181C163.497 34.3768 163.537 34.149 163.597 33.9346C163.678 33.7202 163.768 33.6129 163.868 33.6129C164.009 33.6129 164.159 33.68 164.32 33.814C164.48 33.9479 164.6 34.0954 164.681 34.2562C164.781 34.3902 164.792 34.4975 164.711 34.5779C164.711 34.5779 164.75 34.7254 164.831 35.0202C164.912 35.2883 164.931 35.6099 164.891 35.9851C165.072 36.3872 165.222 36.7222 165.343 36.9903C165.463 37.2315 165.714 37.4996 166.095 37.7944C166.357 38.0625 166.586 38.2636 166.788 38.3975C166.989 38.5315 167.339 38.6119 167.841 38.6388C168.162 38.6388 168.422 38.5852 168.623 38.478C168.825 38.3707 169.005 38.1832 169.165 37.9151C169.346 37.6469 169.556 37.2851 169.797 36.8295C169.857 36.3201 169.777 35.5026 169.556 34.3768C169.355 33.2511 169.054 31.9376 168.654 30.4366C168.253 28.9087 167.771 27.3138 167.209 25.652C167.088 25.3572 166.978 25.0488 166.878 24.7272C166.797 24.4055 166.757 24.2447 166.757 24.2447C166.818 23.7354 166.797 23.2664 166.697 22.8375C166.577 22.7035 166.507 22.3952 166.487 21.9127C166.487 21.4034 166.466 20.9477 166.426 20.5457C166.466 19.9559 166.507 19.5003 166.547 19.1786C166.586 18.857 166.718 18.4818 166.938 18.0528C167.519 16.9271 168.232 15.9889 169.075 15.2384C169.918 14.461 170.992 13.9383 172.295 13.6703C172.516 13.6167 172.797 13.5899 173.138 13.5899C173.479 13.5631 173.83 13.5765 174.191 13.6301C174.553 13.6569 174.874 13.7105 175.155 13.7909C175.456 13.8445 175.676 13.9383 175.817 14.0724C176.298 14.394 176.68 14.7425 176.96 15.1177C177.241 15.493 177.482 15.9219 177.683 16.4044C177.783 16.6992 177.843 16.9271 177.863 17.0879C177.903 17.2219 177.903 17.3559 177.863 17.49C177.824 17.624 177.743 17.825 177.623 18.0931C177.523 18.2539 177.352 18.4416 177.111 18.656C176.891 18.8703 176.629 19.0849 176.328 19.2993C176.048 19.5136 175.747 19.7147 175.425 19.9024C175.124 20.0632 174.844 20.1705 174.583 20.224C174.402 20.3313 174.291 20.3848 174.252 20.3848C174.231 20.3848 174.222 20.3313 174.222 20.224C174.282 20.0632 174.291 19.9426 174.252 19.8622C174.231 19.7817 174.222 19.7415 174.222 19.7415C173.96 19.7415 173.9 19.5941 174.041 19.2993C174.201 19.0045 174.472 18.5487 174.854 17.9322C175.215 17.3961 175.446 17.0343 175.546 16.8466C175.666 16.6322 175.676 16.458 175.576 16.324C175.456 16.2167 175.215 16.1363 174.854 16.0827C174.492 16.0291 174.101 16.0157 173.68 16.0425C173.279 16.0425 172.918 16.0827 172.596 16.1631C171.593 16.5652 170.71 17.1415 169.948 17.892C169.205 18.6426 168.753 19.4734 168.593 20.3848C168.452 20.7869 168.383 21.1488 168.383 21.4704C168.403 21.7921 168.493 22.3014 168.654 22.9983C168.693 23.6685 168.734 24.1912 168.774 24.5664C168.834 24.9416 168.864 25.1561 168.864 25.2097C168.864 25.317 168.885 25.4778 168.924 25.6922C168.964 25.8799 168.994 26.2282 169.015 26.7375C169.054 26.9252 169.156 27.1798 169.316 27.5015C169.476 27.7963 169.747 28.1314 170.128 28.5066C170.168 29.0964 170.239 29.6056 170.339 30.0345C170.459 30.4366 170.529 30.8253 170.55 31.2005C170.951 32.2727 171.251 33.3448 171.453 34.4171C171.673 35.4893 171.804 36.3739 171.844 37.0707C171.884 37.7676 171.834 38.1161 171.693 38.1161C171.673 38.1161 171.663 38.1563 171.663 38.2367C171.663 38.3171 171.673 38.3573 171.693 38.3573C171.693 38.5182 171.624 38.7192 171.483 38.9604C171.342 39.2017 171.172 39.4698 170.971 39.7646C170.77 40.0327 170.57 40.2739 170.369 40.4883C170.188 40.7295 170.038 40.9172 169.918 41.0512ZM178.52 43.544C178.52 43.544 178.49 43.5172 178.43 43.4636C178.369 43.4367 178.289 43.4101 178.189 43.3832C178.108 43.3563 178.008 43.343 177.888 43.343C177.566 43.2357 177.335 42.9945 177.196 42.6193C177.055 42.2707 177.025 41.8822 177.105 41.4533C177.185 41.346 177.245 41.1183 177.286 40.7697C177.326 40.4212 177.346 40.1398 177.346 39.9254C177.426 39.711 177.476 39.5635 177.497 39.4831C177.516 39.3758 177.566 39.1079 177.647 38.679C177.707 38.2234 177.807 37.5934 177.948 36.7893C178.108 35.9583 178.279 35.0737 178.46 34.1356C178.66 33.1975 178.851 32.2994 179.032 31.4417C179.212 30.5841 179.372 29.8603 179.513 29.2706C179.673 28.6808 179.784 28.3458 179.844 28.2654C179.844 28.2654 179.844 28.2252 179.844 28.1448C179.844 28.0375 179.844 27.9304 179.844 27.8231C179.844 27.8231 179.854 27.7025 179.874 27.4613C179.914 27.1932 180.014 26.8984 180.175 26.5767C180.255 26.2819 180.326 25.9603 180.386 25.6117C180.446 25.2632 180.476 25.0355 180.476 24.9282C180.556 24.7943 180.666 24.4726 180.807 23.9633C180.967 23.4272 181.118 22.9045 181.259 22.3952C181.379 21.9663 181.509 21.5106 181.65 21.0282C181.81 20.5457 181.94 20.1303 182.041 19.7817C182.162 19.4332 182.222 19.2591 182.222 19.2591C182.222 19.1518 182.222 19.0982 182.222 19.0982C182.222 19.0714 182.222 19.058 182.222 19.058C182.301 18.9507 182.493 18.4147 182.794 17.4497C183.114 16.458 183.546 15.1848 184.088 13.6301C184.167 13.4157 184.269 13.1744 184.389 12.9064C184.509 12.6383 184.57 12.4507 184.57 12.3435C184.669 12.129 184.81 12.0352 184.991 12.062C185.171 12.062 185.352 12.1424 185.533 12.3033C185.732 12.4641 185.883 12.6919 185.984 12.9868L186.285 13.6301L185.202 16.525C184.88 17.2755 184.609 17.959 184.389 18.5755C184.188 19.192 184.088 19.5538 184.088 19.6611C184.088 19.6611 184.028 19.8755 183.907 20.3044C183.787 20.7334 183.646 21.2425 183.486 21.8323C183.325 22.4221 183.185 22.9581 183.065 23.4406C182.843 24.2716 182.632 24.9551 182.433 25.4911C182.252 26.0272 182.162 26.3488 182.162 26.4561C182.162 26.4025 182.382 26.3623 182.824 26.3355C183.264 26.3086 183.827 26.2953 184.509 26.2953C185.191 26.2953 185.883 26.2953 186.586 26.2953C187.308 26.2684 187.94 26.2551 188.482 26.2551C189.043 26.2282 189.425 26.188 189.626 26.1344L191.191 25.9334L192.214 21.7921C192.374 21.0415 192.585 20.1303 192.846 19.058C193.106 17.9858 193.337 17.0745 193.538 16.324C193.859 15.0909 194.11 14.327 194.291 14.0322C194.471 13.7373 194.682 13.5899 194.923 13.5899C194.983 13.5899 195.062 13.6167 195.164 13.6703C195.284 13.6971 195.394 13.7641 195.495 13.8713C195.615 13.9517 195.695 14.0724 195.736 14.2332C195.976 14.528 196.086 14.8631 196.067 15.2384C196.067 15.6136 195.905 16.1095 195.585 16.726C195.264 17.4497 194.993 18.2405 194.772 19.0982C194.571 19.9292 194.391 20.6127 194.231 21.1488C194.231 21.4704 194.201 21.7385 194.14 21.9529C194.08 22.1406 194.009 22.2879 193.93 22.3952C193.889 22.4487 193.809 22.6498 193.689 22.9983C193.569 23.3468 193.458 23.6952 193.358 24.0437C193.257 24.3922 193.207 24.6066 193.207 24.687C193.207 24.8747 193.177 25.1024 193.117 25.3705C193.057 25.6386 192.986 25.8261 192.906 25.9334C192.865 26.0942 192.775 26.4963 192.636 27.1396C192.495 27.7829 192.335 28.5468 192.154 29.4314C191.973 30.2891 191.782 31.1334 191.582 31.9644C191.381 32.7686 191.2 33.4387 191.04 33.9748C191.04 34.1625 190.99 34.4037 190.89 34.6985C190.789 34.9666 190.739 35.2079 190.739 35.4222C190.659 35.7439 190.559 36.146 190.438 36.6284C190.318 37.1109 190.258 37.4192 190.258 37.5532C190.157 38.1696 190.047 38.7996 189.927 39.4429C189.826 40.0862 189.735 40.6358 189.656 41.0914C189.596 41.5739 189.566 41.8553 189.566 41.9357C189.485 42.043 189.365 42.0564 189.204 41.976C189.043 41.8955 188.853 41.8018 188.633 41.6945C188.251 41.3997 188.02 41.0781 187.94 40.7295C187.88 40.4079 187.96 39.9387 188.181 39.3223C188.281 39.1079 188.401 38.5852 188.542 37.7542C188.702 36.8965 188.862 36.0522 189.024 35.2212C189.144 34.8191 189.274 34.2831 189.415 33.6129C189.555 32.9161 189.696 32.219 189.837 31.5222C189.976 30.7984 190.096 30.1953 190.198 29.7128C190.298 29.2035 190.367 28.9221 190.408 28.8685C190.408 28.7612 190.408 28.6675 190.408 28.5871C190.408 28.5066 190.408 28.4664 190.408 28.4664C190.367 28.4129 190.117 28.3727 189.656 28.3458C189.194 28.2923 188.622 28.2787 187.94 28.3056C187.258 28.3056 186.545 28.3325 185.803 28.386C185.081 28.4129 184.429 28.4798 183.847 28.5871C183.626 28.5871 183.375 28.5871 183.095 28.5871C182.813 28.5871 182.593 28.5871 182.433 28.5871C182.211 28.5871 182.021 28.5871 181.861 28.5871C181.72 28.5871 181.65 28.5871 181.65 28.5871C181.63 28.6675 181.56 28.9489 181.439 29.4314C181.319 29.9139 181.178 30.5036 181.018 31.2005C180.857 31.8707 180.687 32.5675 180.506 33.2913C180.345 33.9881 180.205 34.6314 180.085 35.2212C179.984 35.7841 179.914 36.1862 179.874 36.4274C179.794 36.9099 179.683 37.513 179.543 38.2367C179.423 38.9604 179.282 39.6975 179.122 40.4481C178.981 41.2254 178.851 41.8955 178.731 42.4584C178.629 43.0213 178.56 43.3832 178.52 43.544Z" fill="black"/>
</svg>
