<svg width="63" height="20" viewBox="0 0 63 20" fill="none" xmlns="http://www.w3.org/2000/svg">
<rect y="7" width="63" height="5" rx="2.5" fill="#BCC99B"/>
<path d="M20.576 15.768C20.5653 15.832 20.5013 15.848 20.384 15.816C20.2773 15.7947 20.1813 15.72 20.096 15.592C20.0107 15.3893 19.968 15.2027 19.968 15.032C19.968 14.8613 19.9733 14.6053 19.984 14.264C20.048 13.8907 20.1333 13.4053 20.24 12.808C20.3573 12.2 20.4907 11.5227 20.64 10.776C20.8 10.0187 20.9707 9.22933 21.152 8.408C21.28 7.98133 21.3813 7.592 21.456 7.24C21.5413 6.87733 21.6053 6.584 21.648 6.36C21.6907 6.136 21.712 6.024 21.712 6.024C21.712 5.992 21.68 6.008 21.616 6.072C21.5627 6.12533 21.5093 6.18933 21.456 6.264C21.4027 6.33867 21.3813 6.39733 21.392 6.44C21.392 6.44 21.3547 6.49333 21.28 6.6C21.2053 6.70667 21.1093 6.85067 20.992 7.032C20.8853 7.13867 20.7573 7.352 20.608 7.672C20.4587 7.992 20.2933 8.29067 20.112 8.568C19.9413 8.888 19.76 9.23467 19.568 9.608C19.376 9.97067 19.2053 10.2747 19.056 10.52C18.96 10.6587 18.864 10.8187 18.768 11C18.672 11.1813 18.6133 11.2987 18.592 11.352C18.5493 11.4693 18.4747 11.6133 18.368 11.784C18.2613 11.944 18.144 12.104 18.016 12.264C17.952 12.36 17.888 12.4613 17.824 12.568C17.76 12.664 17.7067 12.7493 17.664 12.824C17.632 12.888 17.616 12.92 17.616 12.92C17.616 12.952 17.5627 13.048 17.456 13.208C17.36 13.368 17.2373 13.544 17.088 13.736C16.9493 13.928 16.816 14.0933 16.688 14.232C16.3147 14.6267 16.016 14.8613 15.792 14.936C15.568 15 15.3173 14.904 15.04 14.648C14.9013 14.4773 14.8 14.2853 14.736 14.072C14.672 13.848 14.6453 13.576 14.656 13.256C14.6667 12.9253 14.704 12.5147 14.768 12.024C14.8427 11.6507 14.912 11.2773 14.976 10.904C15.04 10.52 15.0987 10.1627 15.152 9.832C15.216 9.49067 15.2693 9.20267 15.312 8.968C15.3653 8.73333 15.408 8.57867 15.44 8.504C15.4613 8.29067 15.456 8.17333 15.424 8.152C15.392 8.13067 15.328 8.19467 15.232 8.344C15.1893 8.41867 15.0773 8.60533 14.896 8.904C14.7147 9.192 14.5013 9.54933 14.256 9.976C14.0213 10.4027 13.7867 10.8667 13.552 11.368C13.1147 12.1787 12.752 12.8507 12.464 13.384C12.1867 13.9067 11.9627 14.3227 11.792 14.632C11.632 14.9413 11.5147 15.1707 11.44 15.32C11.3653 15.4693 11.312 15.5707 11.28 15.624C11.248 15.6773 11.2213 15.7147 11.2 15.736C11.104 15.736 11.0027 15.6933 10.896 15.608C10.8 15.5333 10.6987 15.4427 10.592 15.336C10.56 15.2613 10.544 15.1867 10.544 15.112C10.5547 15.0373 10.592 14.9307 10.656 14.792C10.72 14.6427 10.816 14.4187 10.944 14.12C11.0827 13.8427 11.2107 13.6027 11.328 13.4C11.4453 13.1867 11.536 13.0587 11.6 13.016C11.6533 12.9307 11.7013 12.8453 11.744 12.76C11.7867 12.6747 11.8133 12.5733 11.824 12.456C11.8773 12.392 11.9573 12.264 12.064 12.072C12.1813 11.8693 12.2987 11.6507 12.416 11.416C12.5013 11.2773 12.608 11.096 12.736 10.872C12.8747 10.648 13.0187 10.4027 13.168 10.136C13.3173 9.85867 13.4507 9.59733 13.568 9.352C14.0587 8.50933 14.4747 7.8 14.816 7.224C15.1573 6.63733 15.4133 6.264 15.584 6.104C15.6373 6.05067 15.6907 5.976 15.744 5.88C15.808 5.784 15.84 5.69867 15.84 5.624C15.84 5.4 15.8827 5.19733 15.968 5.016C16.064 4.824 16.16 4.73867 16.256 4.76C16.3627 4.76 16.4587 4.77067 16.544 4.792C16.6293 4.81333 16.72 4.88267 16.816 5C16.9013 5.128 16.976 5.256 17.04 5.384C17.104 5.512 17.0987 5.768 17.024 6.152C17.024 6.30133 17.008 6.472 16.976 6.664C16.944 6.84533 16.912 7.016 16.88 7.176C16.8587 7.32533 16.8427 7.44267 16.832 7.528C16.6933 7.944 16.5653 8.41333 16.448 8.936C16.3307 9.448 16.224 9.97067 16.128 10.504C16.032 11.0267 15.952 11.5173 15.888 11.976C15.824 12.424 15.7813 12.7973 15.76 13.096C15.7493 13.384 15.76 13.5493 15.792 13.592C15.8667 13.6347 15.9307 13.64 15.984 13.608C16.0373 13.576 16.128 13.4373 16.256 13.192C16.3307 13.064 16.432 12.9093 16.56 12.728C16.6987 12.536 16.832 12.36 16.96 12.2C17.0453 12.0507 17.1787 11.8267 17.36 11.528C17.5413 11.2293 17.7707 10.8453 18.048 10.376C18.336 9.90667 18.6773 9.336 19.072 8.664C19.4773 7.98133 19.936 7.192 20.448 6.296C20.6933 5.92267 20.9227 5.56 21.136 5.208C21.36 4.84533 21.5413 4.61067 21.68 4.504C21.8293 4.36533 21.984 4.33333 22.144 4.408C22.304 4.472 22.4427 4.61067 22.56 4.824C22.688 5.03733 22.7573 5.304 22.768 5.624C22.7787 5.77333 22.7573 6.01333 22.704 6.344C22.6613 6.67467 22.592 7.05333 22.496 7.48C22.4 7.896 22.2773 8.328 22.128 8.776C22.096 8.95733 22.0427 9.18667 21.968 9.464C21.904 9.73067 21.8293 10.008 21.744 10.296C21.6587 10.584 21.5733 10.856 21.488 11.112C21.4347 11.464 21.3707 11.8107 21.296 12.152C21.232 12.4933 21.2107 12.7227 21.232 12.84C21.136 13.0107 21.072 13.256 21.04 13.576C21.008 13.896 20.992 14.2267 20.992 14.568C20.9493 14.984 20.9173 15.2773 20.896 15.448C20.8747 15.6187 20.8373 15.6987 20.784 15.688C20.6453 15.6453 20.576 15.672 20.576 15.768ZM23.2596 15.528C23.0676 15.4213 22.961 15.304 22.9396 15.176C22.929 15.048 23.0036 14.824 23.1636 14.504C23.3236 14.184 23.5743 13.688 23.9156 13.016C24.1716 12.536 24.3636 12.1627 24.4916 11.896C24.6303 11.6187 24.721 11.4213 24.7636 11.304C24.817 11.1867 24.8436 11.112 24.8436 11.08C24.8223 10.984 24.833 10.9093 24.8756 10.856C24.9183 10.792 24.9876 10.7387 25.0836 10.696C25.137 10.6427 25.2223 10.5467 25.3396 10.408C25.4676 10.2693 25.585 10.104 25.6916 9.912C25.7876 9.688 25.8996 9.45867 26.0276 9.224C26.1556 8.98933 26.3263 8.696 26.5396 8.344C26.753 7.98133 27.0303 7.512 27.3716 6.936C27.585 6.56267 27.8196 6.184 28.0756 5.8C28.3316 5.40533 28.6036 5.016 28.8916 4.632C29.009 4.48267 29.1156 4.36533 29.2116 4.28C29.3076 4.184 29.4036 4.14133 29.4996 4.152C29.6276 4.152 29.7716 4.19467 29.9316 4.28C30.1023 4.36533 30.257 4.47733 30.3956 4.616C30.5343 4.75467 30.6356 4.904 30.6996 5.064C30.753 5.14933 30.7743 5.33067 30.7636 5.608C30.753 5.88533 30.7316 6.22133 30.6996 6.616C30.6676 7.01067 30.6303 7.432 30.5876 7.88C30.5556 8.31733 30.5076 8.83467 30.4436 9.432C30.3796 10.0293 30.3156 10.6533 30.2516 11.304C30.1983 11.9547 30.1556 12.584 30.1236 13.192C30.0916 13.7893 30.0916 14.312 30.1236 14.76C30.1343 14.856 30.1343 14.9467 30.1236 15.032C30.113 15.1173 30.1076 15.1867 30.1076 15.24C30.0436 15.304 29.937 15.3307 29.7876 15.32C29.649 15.32 29.5103 15.288 29.3716 15.224C29.2436 15.16 29.169 15.08 29.1476 14.984C29.1156 14.952 29.0943 14.9093 29.0836 14.856C29.0836 14.792 29.089 14.664 29.0996 14.472C29.1103 14.28 29.121 13.976 29.1316 13.56L29.2116 10.968L29.0036 10.984C28.9076 10.984 28.7263 10.9947 28.4596 11.016C28.193 11.0373 27.905 11.0693 27.5956 11.112C27.2863 11.144 26.9983 11.1813 26.7316 11.224C26.4756 11.256 26.2996 11.288 26.2036 11.32C26.1076 11.32 25.9903 11.384 25.8516 11.512C25.7236 11.64 25.601 11.8053 25.4836 12.008C25.441 12.1573 25.361 12.3173 25.2436 12.488C25.137 12.648 25.0836 12.7547 25.0836 12.808C25.009 12.8613 24.945 12.9253 24.8916 13C24.849 13.0747 24.8276 13.112 24.8276 13.112C24.8276 13.176 24.7743 13.336 24.6676 13.592C24.5716 13.8373 24.449 14.1147 24.2996 14.424C24.1503 14.7227 24.001 14.984 23.8516 15.208L23.5156 15.72L23.2596 15.528ZM26.5716 10.376C26.5716 10.376 26.625 10.3653 26.7316 10.344C26.849 10.3227 26.9823 10.3013 27.1316 10.28C27.2916 10.248 27.4356 10.232 27.5636 10.232C28.0116 10.1253 28.337 10.056 28.5396 10.024C28.7423 9.98133 28.881 9.96 28.9556 9.96C29.041 9.96 29.1156 9.976 29.1796 10.008C29.2223 10.0613 29.2596 10.0933 29.2916 10.104C29.3343 10.1147 29.3556 10.12 29.3556 10.12C29.3663 10.0987 29.3823 9.976 29.4036 9.752C29.425 9.528 29.4516 9.25067 29.4836 8.92C29.5263 8.58933 29.5636 8.248 29.5956 7.896C29.6383 7.53333 29.6703 7.20267 29.6916 6.904C29.713 6.59467 29.729 6.36 29.7396 6.2C29.7503 5.99733 29.761 5.816 29.7716 5.656C29.7823 5.48533 29.7876 5.4 29.7876 5.4C29.7236 5.4 29.585 5.51733 29.3716 5.752C29.169 5.98667 28.9396 6.296 28.6836 6.68C28.4276 7.064 28.1876 7.47467 27.9636 7.912C27.857 8.11467 27.7556 8.296 27.6596 8.456C27.5636 8.616 27.489 8.696 27.4356 8.696C27.4143 8.71733 27.3503 8.81333 27.2436 8.984C27.1476 9.144 27.041 9.33067 26.9236 9.544C26.8063 9.74667 26.7103 9.93333 26.6356 10.104C26.561 10.264 26.5396 10.3547 26.5716 10.376ZM39.2909 15.624C39.2482 15.624 39.1682 15.608 39.0509 15.576C38.9335 15.544 38.7949 15.4907 38.6349 15.416C38.4855 15.3413 38.3415 15.2453 38.2029 15.128C38.0642 15.0107 37.9522 14.8667 37.8669 14.696C37.7922 14.6 37.6749 14.4667 37.5149 14.296C37.3549 14.1253 37.2162 13.9707 37.0989 13.832C36.7042 13.4373 36.3682 13.0747 36.0909 12.744C35.8242 12.4133 35.6109 12.1307 35.4509 11.896C35.3229 11.768 35.2002 11.6453 35.0829 11.528C34.9762 11.4 34.8749 11.2933 34.7789 11.208C34.6829 11.112 34.5922 11.0533 34.5069 11.032C34.4535 11.0747 34.4055 11.1387 34.3629 11.224C34.3202 11.3093 34.2829 11.4427 34.2509 11.624C34.1762 11.784 34.1069 11.9813 34.0429 12.216C33.9789 12.4507 33.9309 12.632 33.8989 12.76C33.8135 12.952 33.7442 13.144 33.6909 13.336C33.6482 13.5173 33.6055 13.6773 33.5629 13.816C33.5202 13.9547 33.4775 14.0667 33.4349 14.152C33.4029 14.2373 33.3655 14.3013 33.3229 14.344C33.3229 14.344 33.3069 14.4187 33.2749 14.568C33.2429 14.7067 33.2109 14.84 33.1789 14.968C33.0722 15.4907 32.9709 15.784 32.8749 15.848C32.7895 15.9227 32.6082 15.8427 32.3309 15.608C32.2562 15.4693 32.1922 15.3573 32.1389 15.272C32.0855 15.1867 32.0589 15.1227 32.0589 15.08C32.0589 15.08 32.0909 14.9893 32.1549 14.808C32.2189 14.616 32.2882 14.392 32.3629 14.136C32.4162 13.9547 32.4909 13.72 32.5869 13.432C32.6935 13.1333 32.8002 12.8187 32.9069 12.488C33.0135 12.1467 33.1149 11.8213 33.2109 11.512C33.3069 11.192 33.3815 10.92 33.4349 10.696C33.4775 10.6533 33.4989 10.6107 33.4989 10.568C33.5095 10.5253 33.5149 10.4667 33.5149 10.392C33.5362 10.328 33.5895 10.1787 33.6749 9.944C33.7602 9.69867 33.8615 9.42667 33.9789 9.128C34.0962 8.81867 34.2082 8.53067 34.3149 8.264C34.4322 7.98667 34.5282 7.78933 34.6029 7.672C34.6455 7.58667 34.6669 7.512 34.6669 7.448C34.6775 7.384 34.6829 7.352 34.6829 7.352C34.6829 7.256 34.7309 7.19733 34.8269 7.176C34.8269 7.12267 34.8269 7.06933 34.8269 7.016C34.8375 6.96267 34.8642 6.91467 34.9069 6.872C34.9389 6.78667 35.0029 6.62133 35.0989 6.376C35.1949 6.13067 35.2909 5.864 35.3869 5.576C35.4935 5.27733 35.5842 5.016 35.6589 4.792C35.7335 4.568 35.7709 4.44533 35.7709 4.424C35.7709 4.37067 35.7869 4.328 35.8189 4.296C35.8509 4.25333 35.8829 4.21067 35.9149 4.168C36.0215 4.08267 36.1282 4.04533 36.2349 4.056C36.3522 4.056 36.4642 4.09333 36.5709 4.168C36.6882 4.24267 36.7895 4.34933 36.8749 4.488C36.8749 4.53067 36.8589 4.62667 36.8269 4.776C36.7949 4.92533 36.7415 5.09067 36.6669 5.272C36.5922 5.45333 36.5229 5.61333 36.4589 5.752C36.3949 5.89067 36.3629 5.96 36.3629 5.96C36.3629 5.96 36.2989 6.136 36.1709 6.488C36.0535 6.82933 35.9042 7.24 35.7229 7.72C35.5095 8.15733 35.3335 8.552 35.1949 8.904C35.0669 9.24533 35.0242 9.43733 35.0669 9.48C35.0669 9.48 35.2109 9.37333 35.4989 9.16C35.7869 8.936 36.1015 8.65867 36.4429 8.328C36.7202 8.05067 37.0242 7.784 37.3549 7.528C37.6855 7.26133 38.0215 7.00533 38.3629 6.76C38.8535 6.42933 39.2215 6.184 39.4669 6.024C39.7229 5.85333 39.9149 5.74133 40.0429 5.688C40.1709 5.624 40.2935 5.592 40.4109 5.592C40.5495 5.53867 40.6402 5.53333 40.6829 5.576C40.7255 5.608 40.8109 5.66133 40.9389 5.736C40.9815 5.81067 41.0189 5.88533 41.0509 5.96C41.0935 6.024 41.1149 6.056 41.1149 6.056C41.1255 6.16267 41.0669 6.264 40.9389 6.36C40.8109 6.456 40.6242 6.568 40.3789 6.696C40.1122 6.86667 39.7869 7.09067 39.4029 7.368C39.0295 7.63467 38.6402 7.928 38.2349 8.248C37.8402 8.568 37.4669 8.88267 37.1149 9.192C36.7629 9.50133 36.4642 9.77867 36.2189 10.024C35.9842 10.2587 35.8455 10.4347 35.8029 10.552C35.7282 10.6267 35.7015 10.7013 35.7229 10.776C35.7549 10.8507 35.8722 10.984 36.0749 11.176C36.2242 11.3573 36.3415 11.5067 36.4269 11.624C36.5122 11.7307 36.5549 11.784 36.5549 11.784C36.5549 11.8053 36.6135 11.88 36.7309 12.008C36.8482 12.136 36.9869 12.28 37.1469 12.44C37.3175 12.6 37.4722 12.7493 37.6109 12.888C37.6535 12.9947 37.7709 13.144 37.9629 13.336C38.1549 13.5173 38.3362 13.7413 38.5069 14.008C39.0189 14.5413 39.3442 14.9413 39.4829 15.208C39.6322 15.4747 39.5682 15.6133 39.2909 15.624ZM44.0366 15.608C43.61 15.608 43.226 15.5813 42.8846 15.528C42.554 15.4853 42.25 15.3573 41.9726 15.144C41.642 14.8987 41.45 14.5787 41.3966 14.184C41.354 13.7787 41.434 13.1973 41.6366 12.44C41.69 12.1733 41.7486 11.9387 41.8126 11.736C41.8873 11.5333 41.9513 11.432 42.0046 11.432C42.0153 11.3787 42.0313 11.304 42.0526 11.208C42.074 11.1013 42.0953 10.9787 42.1166 10.84C42.17 10.648 42.2073 10.5093 42.2286 10.424C42.25 10.328 42.2926 10.248 42.3566 10.184C42.3886 10.1627 42.426 10.0933 42.4686 9.976C42.5113 9.848 42.538 9.77333 42.5486 9.752C42.5486 9.752 42.554 9.71467 42.5646 9.64C42.5753 9.55467 42.602 9.45867 42.6446 9.352C42.8046 9.08533 42.8846 8.90933 42.8846 8.824C42.906 8.78133 42.9486 8.71733 43.0126 8.632C43.0873 8.54667 43.146 8.43467 43.1886 8.296C43.5086 7.73067 43.77 7.24533 43.9726 6.84C44.1753 6.424 44.298 6.11467 44.3406 5.912C44.394 5.79467 44.442 5.69333 44.4846 5.608C44.538 5.512 44.602 5.42133 44.6766 5.336C44.6553 5.28267 44.698 5.224 44.8046 5.16C44.9113 5.096 45.0606 5.02667 45.2526 4.952C45.4446 4.87733 45.6526 4.81333 45.8766 4.76C46.1113 4.70667 46.3406 4.67467 46.5646 4.664C46.6286 4.62133 46.7673 4.58933 46.9806 4.568C47.2046 4.54667 47.4606 4.536 47.7486 4.536C48.0366 4.536 48.3033 4.54667 48.5486 4.568C48.7833 4.568 48.97 4.6 49.1086 4.664C49.2473 4.728 49.386 4.792 49.5246 4.856C49.578 4.90933 49.6153 4.97333 49.6366 5.048C49.6686 5.12267 49.69 5.192 49.7006 5.256C49.7113 5.30933 49.7166 5.336 49.7166 5.336C49.7166 5.38933 49.5673 5.42133 49.2686 5.432C48.97 5.44267 48.6446 5.448 48.2926 5.448C47.898 5.448 47.5193 5.48 47.1566 5.544C46.794 5.608 46.554 5.64 46.4366 5.64C46.2873 5.68267 46.154 5.70933 46.0366 5.72C45.93 5.73067 45.8766 5.736 45.8766 5.736C45.8553 5.736 45.786 5.82133 45.6686 5.992C45.562 6.152 45.4393 6.344 45.3006 6.568C45.1726 6.78133 45.0553 6.984 44.9486 7.176C44.8526 7.35733 44.8046 7.464 44.8046 7.496C44.8046 7.60267 44.762 7.72 44.6766 7.848C44.5913 7.976 44.49 8.12533 44.3726 8.296C44.266 8.43467 44.1966 8.56267 44.1646 8.68C44.1326 8.78667 44.1646 8.86133 44.2606 8.904C44.4313 8.872 44.6606 8.84 44.9486 8.808C45.2473 8.776 45.5406 8.74933 45.8286 8.728C46.1273 8.696 46.3566 8.68 46.5166 8.68C46.698 8.62667 46.8473 8.616 46.9646 8.648C47.082 8.68 47.1673 8.712 47.2206 8.744C47.3486 8.76533 47.4393 8.808 47.4926 8.872C47.546 8.92533 47.5673 8.97867 47.5566 9.032C47.5566 9.08533 47.5193 9.128 47.4446 9.16C47.3806 9.224 47.2206 9.29867 46.9646 9.384C46.7086 9.46933 46.41 9.55467 46.0686 9.64C45.7273 9.72533 45.3806 9.80533 45.0286 9.88C44.6873 9.944 44.394 9.99733 44.1486 10.04C43.9033 10.0827 43.7593 10.0987 43.7166 10.088C43.6526 9.93867 43.6046 9.944 43.5726 10.104C43.5513 10.2533 43.434 10.5627 43.2206 11.032C43.1033 11.2987 42.9966 11.5547 42.9006 11.8C42.8153 12.0347 42.7406 12.2853 42.6766 12.552C42.6233 12.808 42.5646 13.1013 42.5006 13.432C42.426 13.72 42.4046 13.9547 42.4366 14.136C42.4793 14.3067 42.6713 14.472 43.0126 14.632C43.226 14.6747 43.5086 14.6907 43.8606 14.68C44.2233 14.6693 44.634 14.6053 45.0926 14.488C45.2846 14.3707 45.4606 14.28 45.6206 14.216C45.7806 14.1413 45.898 14.0827 45.9726 14.04C46.026 14.04 46.106 14.0293 46.2126 14.008C46.33 13.976 46.41 13.96 46.4526 13.96C46.538 13.8427 46.6446 13.784 46.7726 13.784C46.794 13.784 46.842 13.8267 46.9166 13.912C47.002 13.9867 47.082 14.072 47.1566 14.168C47.2313 14.264 47.2633 14.328 47.2526 14.36C47.2526 14.4667 47.1353 14.5733 46.9006 14.68C46.666 14.7867 46.282 14.9467 45.7486 15.16C45.482 15.2773 45.2633 15.368 45.0926 15.432C44.9326 15.496 44.778 15.5387 44.6286 15.56C44.4793 15.592 44.282 15.608 44.0366 15.608Z" fill="#0E0E2C"/>
</svg>
