<svg width="122" height="30" viewBox="0 0 122 30" fill="none" xmlns="http://www.w3.org/2000/svg">
<rect x="5" y="10" width="109" height="11" rx="5.5" fill="#BCC99B"/>
<path d="M3.36 24.44C3.296 24.6 3.176 24.688 3 24.704C2.84 24.72 2.624 24.624 2.352 24.416C2.16 24.224 2.032 24.072 1.968 23.96C1.92 23.864 1.952 23.688 2.064 23.432C2.176 23.192 2.368 22.76 2.64 22.136C2.704 21.752 2.816 21.368 2.976 20.984C3.136 20.584 3.256 20.304 3.336 20.144C3.4 19.92 3.528 19.552 3.72 19.04C3.928 18.512 4.16 17.928 4.416 17.288C4.688 16.648 4.944 16.048 5.184 15.488C5.424 14.912 5.6 14.48 5.712 14.192C5.984 13.552 6.264 12.88 6.552 12.176C6.84 11.472 7.232 10.584 7.728 9.512C7.792 9.352 7.824 9.184 7.824 9.008C7.84 8.832 7.712 8.744 7.44 8.744C7.28 8.568 7.192 8.392 7.176 8.216C7.16 8.024 7.24 7.888 7.416 7.808L8.664 7.304C9.416 7.128 10.184 7.08 10.968 7.16C11.768 7.224 12.52 7.44 13.224 7.808C13.992 8.256 14.536 8.712 14.856 9.176C15.176 9.624 15.336 10.08 15.336 10.544C15.352 11.008 15.272 11.464 15.096 11.912C14.968 12.248 14.72 12.616 14.352 13.016C14 13.416 13.584 13.816 13.104 14.216C12.64 14.616 12.152 14.984 11.64 15.32C11.144 15.64 10.68 15.888 10.248 16.064C9.848 16.256 9.432 16.424 9 16.568C8.568 16.712 8.12 16.856 7.656 17C7.4 17.064 7.096 17.096 6.744 17.096C6.392 17.096 6.128 17.064 5.952 17L5.544 18.128C5.384 18.704 5.104 19.56 4.704 20.696C4.32 21.832 3.872 23.08 3.36 24.44ZM12.888 24.704C12.76 24.752 12.608 24.768 12.432 24.752C12.272 24.736 12.008 24.608 11.64 24.368C10.936 23.952 10.232 23.448 9.528 22.856C8.824 22.264 8.032 21.464 7.152 20.456C6.816 20.056 6.528 19.688 6.288 19.352C6.064 19.016 5.824 18.544 5.568 17.936L5.232 16.64L5.88 16.28L6.744 17.144C7 17.704 7.328 18.24 7.728 18.752C8.144 19.264 8.528 19.72 8.88 20.12C9.168 20.456 9.56 20.864 10.056 21.344C10.552 21.808 11.08 22.256 11.64 22.688C12.2 23.12 12.704 23.448 13.152 23.672C13.248 23.752 13.28 23.872 13.248 24.032C13.216 24.192 13.16 24.336 13.08 24.464C13.016 24.608 12.952 24.688 12.888 24.704ZM6.696 15.776C7.064 15.744 7.496 15.656 7.992 15.512C8.488 15.352 8.984 15.168 9.48 14.96C9.944 14.736 10.432 14.472 10.944 14.168C11.472 13.848 11.96 13.496 12.408 13.112C12.856 12.728 13.216 12.328 13.488 11.912C13.776 11.496 13.904 11.08 13.872 10.664C13.872 10.456 13.792 10.24 13.632 10.016C13.472 9.792 13.28 9.592 13.056 9.416C12.832 9.24 12.616 9.12 12.408 9.056C11.768 8.896 11.24 8.792 10.824 8.744C10.408 8.696 10.088 8.728 9.864 8.84C9.64 8.936 9.488 9.144 9.408 9.464C9.408 9.512 9.344 9.672 9.216 9.944C9.088 10.216 8.928 10.552 8.736 10.952C8.56 11.352 8.384 11.776 8.208 12.224C7.744 13.168 7.392 13.888 7.152 14.384C6.912 14.864 6.76 15.2 6.696 15.392C6.632 15.584 6.632 15.712 6.696 15.776ZM18.9259 23.576C18.4299 23.544 17.9899 23.392 17.6059 23.12C17.2379 22.848 16.8459 22.568 16.4299 22.28C16.1579 22.008 15.9419 21.72 15.7819 21.416C15.6219 21.096 15.4939 20.68 15.3979 20.168C15.3339 19.864 15.3339 19.48 15.3979 19.016C15.4619 18.552 15.5659 18.088 15.7099 17.624C15.8539 17.144 15.9899 16.76 16.1179 16.472C16.3099 16.024 16.5499 15.544 16.8379 15.032C17.1419 14.504 17.4379 14.008 17.7259 13.544C18.0299 13.064 18.2699 12.68 18.4459 12.392C18.5579 12.28 18.6059 12.224 18.5899 12.224C18.5899 12.208 18.5899 12.2 18.5899 12.2C18.5899 12.12 18.6699 11.92 18.8299 11.6C19.0059 11.264 19.1579 10.968 19.2859 10.712C19.5259 10.456 19.6619 10.248 19.6939 10.088C19.7259 9.928 19.7019 9.8 19.6219 9.704C19.5899 9.64 19.6459 9.528 19.7899 9.368C19.9339 9.208 20.1499 9.024 20.4379 8.816C20.7259 8.608 21.0539 8.4 21.4219 8.192C21.8059 7.888 22.1739 7.728 22.5259 7.712C22.8939 7.68 23.1099 7.752 23.1739 7.928C23.1739 7.976 23.2619 7.992 23.4379 7.976C23.6299 7.944 23.8459 7.904 24.0859 7.856C24.3419 7.792 24.5659 7.744 24.7579 7.712C24.8379 7.616 25.0219 7.544 25.3099 7.496C25.6139 7.432 25.9659 7.376 26.3659 7.328C26.5739 7.344 26.7739 7.352 26.9659 7.352C27.1739 7.336 27.3419 7.32 27.4699 7.304C27.6139 7.288 27.6859 7.28 27.6859 7.28C27.7979 7.248 27.9259 7.264 28.0699 7.328C28.2299 7.392 28.3739 7.568 28.5019 7.856C28.6139 8.144 28.5739 8.36 28.3819 8.504C28.2059 8.648 27.7899 8.76 27.1339 8.84C26.6539 8.904 26.2379 8.96 25.8859 9.008C25.5339 9.04 25.1659 9.088 24.7819 9.152C24.3979 9.2 23.9259 9.288 23.3659 9.416C22.9659 9.496 22.6379 9.592 22.3819 9.704C22.1259 9.8 21.9019 9.952 21.7099 10.16C21.5179 10.352 21.3019 10.632 21.0619 11C20.9499 11.08 20.8059 11.288 20.6299 11.624C20.4539 11.96 20.2779 12.296 20.1019 12.632C19.6539 13.256 19.2619 13.8 18.9259 14.264C18.6059 14.712 18.4779 14.976 18.5419 15.056C18.5419 15.056 18.6299 15.08 18.8059 15.128C18.9819 15.176 19.1019 15.2 19.1659 15.2C19.3259 15.12 19.5179 15.064 19.7419 15.032C19.9819 15 20.1739 14.968 20.3179 14.936C21.3099 14.68 22.0859 14.48 22.6459 14.336C23.2219 14.192 23.6539 14.088 23.9419 14.024C24.2459 13.944 24.4779 13.896 24.6379 13.88C24.8619 13.704 25.0779 13.672 25.2859 13.784C25.5099 13.896 25.6859 14.072 25.8139 14.312C25.8939 14.488 25.8939 14.64 25.8139 14.768C25.7499 14.896 25.5499 15.024 25.2139 15.152C24.8939 15.28 24.4139 15.432 23.7739 15.608C23.1339 15.784 22.2939 16.016 21.2539 16.304C20.3739 16.56 19.6219 16.712 18.9979 16.76C18.3739 16.808 18.0779 16.672 18.1099 16.352C17.9979 16.288 17.8699 16.368 17.7259 16.592C17.5979 16.8 17.4699 17.088 17.3419 17.456C17.2139 17.824 17.1019 18.216 17.0059 18.632C16.9259 19.048 16.8699 19.44 16.8379 19.808C16.8219 20.16 16.8459 20.424 16.9099 20.6C17.0379 20.968 17.2059 21.264 17.4139 21.488C17.6219 21.696 17.9979 21.88 18.5419 22.04C18.8619 22.056 19.1739 22.08 19.4779 22.112C19.7819 22.144 20.1259 22.08 20.5099 21.92C21.4539 21.76 22.1979 21.592 22.7419 21.416C23.2859 21.24 23.5979 21.12 23.6779 21.056C23.8059 20.992 23.8859 20.96 23.9179 20.96C23.9659 20.944 24.0299 20.936 24.1099 20.936C24.0619 21.016 24.0779 21.024 24.1579 20.96C24.2539 20.88 24.3819 20.76 24.5419 20.6C24.7179 20.44 24.9499 20.288 25.2379 20.144C25.5259 20 25.7819 19.888 26.0059 19.808C26.2459 19.728 26.3739 19.728 26.3899 19.808C26.4859 19.968 26.4699 20.192 26.3419 20.48C26.2139 20.752 25.9819 21.056 25.6459 21.392C25.3099 21.712 24.8779 22.024 24.3499 22.328C23.5019 22.776 22.5819 23.088 21.5899 23.264C20.5979 23.456 19.7099 23.56 18.9259 23.576ZM38.445 24.896C38.381 24.896 38.309 24.864 38.229 24.8C38.149 24.752 38.069 24.68 37.989 24.584C37.877 24.472 37.797 24.336 37.749 24.176C37.717 24.016 37.701 23.864 37.701 23.72C37.701 23.544 37.701 23.32 37.701 23.048C37.701 22.792 37.685 22.512 37.653 22.208C37.653 21.744 37.645 21.264 37.629 20.768C37.613 20.272 37.637 19.952 37.701 19.808C37.653 19.584 37.645 19.344 37.677 19.088C37.725 18.816 37.749 18.608 37.749 18.464L37.653 17.816H36.333C36.029 17.864 35.573 17.88 34.965 17.864C34.373 17.832 33.661 17.792 32.829 17.744L32.517 18.248C32.469 18.312 32.357 18.48 32.181 18.752C32.021 19.024 31.877 19.328 31.749 19.664C31.669 19.872 31.573 20.104 31.461 20.36C31.349 20.6 31.229 20.848 31.101 21.104C30.989 21.344 30.861 21.568 30.717 21.776C30.461 22.272 30.261 22.616 30.117 22.808C29.989 22.984 29.885 23.072 29.805 23.072C29.661 23.072 29.533 23.064 29.421 23.048C29.325 23.032 29.197 22.968 29.037 22.856C28.717 22.712 28.573 22.488 28.605 22.184C28.653 21.88 28.837 21.496 29.157 21.032C29.237 20.92 29.309 20.808 29.373 20.696C29.437 20.584 29.469 20.528 29.469 20.528C29.469 20.496 29.525 20.352 29.637 20.096C29.765 19.824 29.909 19.528 30.069 19.208C30.245 18.888 30.413 18.6 30.573 18.344C30.733 18.072 30.853 17.92 30.933 17.888C31.221 17.568 31.197 17.264 30.861 16.976C30.749 16.928 30.701 16.864 30.717 16.784C30.733 16.688 30.789 16.6 30.885 16.52C30.997 16.44 31.125 16.4 31.269 16.4C31.429 16.32 31.541 16.264 31.605 16.232C31.685 16.2 31.725 16.152 31.725 16.088C31.725 16.056 31.773 15.928 31.869 15.704C31.981 15.464 32.117 15.192 32.277 14.888C32.437 14.568 32.597 14.272 32.757 14C32.933 13.712 33.077 13.496 33.189 13.352C33.365 12.904 33.501 12.608 33.597 12.464C33.693 12.304 33.773 12.152 33.837 12.008C33.917 11.928 34.029 11.752 34.173 11.48C34.317 11.208 34.469 10.944 34.629 10.688C34.853 10.464 35.053 10.224 35.229 9.968C35.421 9.696 35.589 9.472 35.733 9.296C35.813 9.12 35.925 8.928 36.069 8.72C36.229 8.512 36.389 8.296 36.549 8.072C36.853 7.736 37.093 7.528 37.269 7.448C37.461 7.352 37.717 7.376 38.037 7.52C38.405 7.68 38.677 7.936 38.853 8.288C39.029 8.64 39.141 9.152 39.189 9.824C39.237 10.192 39.285 10.608 39.333 11.072C39.397 11.52 39.389 11.856 39.309 12.08C39.309 12.368 39.301 12.72 39.285 13.136C39.285 13.552 39.309 13.944 39.357 14.312C39.293 14.616 39.269 14.96 39.285 15.344C39.301 15.712 39.309 15.968 39.309 16.112C39.309 16.256 39.301 16.488 39.285 16.808C39.269 17.112 39.261 17.376 39.261 17.6C39.245 18.208 39.229 18.712 39.213 19.112C39.213 19.512 39.213 19.896 39.213 20.264C39.229 20.616 39.237 21.032 39.237 21.512C39.269 22.776 39.237 23.64 39.141 24.104C39.045 24.584 38.813 24.848 38.445 24.896ZM33.573 16.496C33.573 16.496 33.757 16.48 34.125 16.448C34.509 16.4 34.925 16.384 35.373 16.4C35.901 16.352 36.341 16.344 36.693 16.376C37.045 16.392 37.253 16.384 37.317 16.352C37.493 16.368 37.613 16.296 37.677 16.136C37.741 15.976 37.773 15.768 37.773 15.512C37.741 15.16 37.717 14.688 37.701 14.096C37.685 13.488 37.669 12.88 37.653 12.272C37.653 11.648 37.661 11.136 37.677 10.736C37.677 10.432 37.661 10.16 37.629 9.92C37.597 9.664 37.581 9.536 37.581 9.536C37.549 9.488 37.445 9.552 37.269 9.728C37.093 9.904 36.893 10.128 36.669 10.4C36.461 10.672 36.261 10.936 36.069 11.192C35.893 11.448 35.765 11.64 35.685 11.768C35.621 11.848 35.501 12.056 35.325 12.392C35.149 12.728 34.949 13.088 34.725 13.472C34.133 14.416 33.757 15.136 33.597 15.632C33.437 16.128 33.429 16.416 33.573 16.496ZM45.6439 23.864C45.0359 23.864 44.4759 23.76 43.9639 23.552C43.4679 23.344 43.1559 22.896 43.0279 22.208C43.0439 21.856 43.0599 21.632 43.0759 21.536C43.1079 21.44 43.1719 21.392 43.2679 21.392C43.3319 21.392 43.3799 21.384 43.4119 21.368C43.4599 21.336 43.4839 21.264 43.4839 21.152C43.4999 20.912 43.5399 20.624 43.6039 20.288C43.6679 19.936 43.7479 19.608 43.8439 19.304C43.9399 18.984 44.0279 18.76 44.1079 18.632C44.1879 18.328 44.3079 17.92 44.4679 17.408C44.6439 16.896 44.8199 16.36 44.9959 15.8C45.1879 15.224 45.3639 14.704 45.5239 14.24C45.6839 13.776 45.8039 13.448 45.8839 13.256C45.9639 13.048 46.0759 12.776 46.2199 12.44C46.3639 12.088 46.4679 11.784 46.5319 11.528C46.6439 11.256 46.7639 10.944 46.8919 10.592C47.0199 10.24 47.1399 9.976 47.2519 9.8L47.5639 9.104L47.0119 8.624C46.7879 8.4 46.6759 8.184 46.6759 7.976C46.6759 7.752 46.8279 7.56 47.1319 7.4C47.4359 7.224 47.7719 7.104 48.1399 7.04C48.2999 7.008 48.4679 6.992 48.6439 6.992C48.8359 6.992 49.0279 6.992 49.2199 6.992C49.6359 6.992 50.0599 7.008 50.4919 7.04C50.9239 7.072 51.2839 7.112 51.5719 7.16C51.7479 7.192 51.9559 7.264 52.1959 7.376C52.4519 7.472 52.6919 7.584 52.9159 7.712C53.1559 7.84 53.3239 7.96 53.4199 8.072C53.4199 8.072 53.4439 8.104 53.4919 8.168C53.5559 8.216 53.6199 8.24 53.6839 8.24C53.7799 8.288 53.9399 8.464 54.1639 8.768C54.4039 9.056 54.6359 9.384 54.8599 9.752C55.0839 10.12 55.2199 10.448 55.2679 10.736C55.3159 10.976 55.3479 11.224 55.3639 11.48C55.3959 11.72 55.4119 11.952 55.4119 12.176C55.3959 12.512 55.3719 12.848 55.3399 13.184C55.3239 13.52 55.2839 13.872 55.2199 14.24C55.1719 14.576 55.0759 14.952 54.9319 15.368C54.7879 15.784 54.6359 16.176 54.4759 16.544C54.3319 16.912 54.1959 17.216 54.0679 17.456C53.9559 17.696 53.8839 17.816 53.8519 17.816C53.7559 17.816 53.6999 17.84 53.6839 17.888C53.6679 17.936 53.6599 17.992 53.6599 18.056C53.6439 18.2 53.5559 18.432 53.3959 18.752C53.2519 19.056 53.0599 19.392 52.8199 19.76C52.5799 20.112 52.3319 20.448 52.0759 20.768C51.8199 21.072 51.5719 21.304 51.3319 21.464C50.8519 21.976 50.2839 22.416 49.6279 22.784C48.9719 23.136 48.2919 23.4 47.5879 23.576C46.8999 23.768 46.2519 23.864 45.6439 23.864ZM45.6199 22.424C45.7799 22.424 46.0439 22.416 46.4119 22.4C46.7959 22.368 47.0999 22.304 47.3239 22.208C47.7399 22.096 48.2279 21.88 48.7879 21.56C49.3639 21.224 49.8839 20.816 50.3479 20.336C50.8599 19.808 51.3239 19.256 51.7399 18.68C52.1559 18.088 52.5639 17.296 52.9639 16.304C53.2359 15.648 53.4359 14.976 53.5639 14.288C53.7079 13.584 53.7799 12.96 53.7799 12.416C53.7799 11.44 53.5959 10.648 53.2279 10.04C52.8599 9.416 52.3799 9 51.7879 8.792C51.5639 8.696 51.3239 8.632 51.0679 8.6C50.8119 8.552 50.5719 8.528 50.3479 8.528C50.1879 8.528 50.0119 8.536 49.8199 8.552C49.6439 8.568 49.5319 8.592 49.4839 8.624C49.3559 8.624 49.2119 8.76 49.0519 9.032C48.8919 9.304 48.7399 9.64 48.5959 10.04C48.4679 10.44 48.3479 10.832 48.2359 11.216C48.1079 11.712 47.9879 12.104 47.8759 12.392C47.7639 12.68 47.6439 12.976 47.5159 13.28C47.4039 13.568 47.2599 13.984 47.0839 14.528C46.8599 14.976 46.6679 15.432 46.5079 15.896C46.3479 16.36 46.2119 16.768 46.0999 17.12C46.0039 17.456 45.9319 17.688 45.8839 17.816C45.7879 18.024 45.6839 18.328 45.5719 18.728C45.4599 19.112 45.3559 19.528 45.2599 19.976C45.1639 20.424 45.0839 20.84 45.0199 21.224C44.9719 21.608 44.9479 21.896 44.9479 22.088C44.9479 22.232 45.0199 22.328 45.1639 22.376C45.3079 22.408 45.4599 22.424 45.6199 22.424ZM77.2354 24.248C77.0754 24.216 76.9474 24.152 76.8514 24.056C76.7714 23.976 76.7154 23.8 76.6834 23.528C76.6194 23.272 76.5874 22.84 76.5874 22.232C76.5874 21.624 76.6114 20.96 76.6594 20.24C76.7234 19.52 76.7794 18.856 76.8274 18.248C76.9074 18.04 76.9394 17.824 76.9234 17.6C76.9074 17.376 76.8834 17.232 76.8514 17.168C76.8514 17.088 76.8514 16.992 76.8514 16.88C76.8674 16.752 76.9074 16.656 76.9714 16.592C76.9714 16.448 76.9714 16.288 76.9714 16.112C76.9714 15.936 76.9874 15.776 77.0194 15.632C77.0994 15.488 77.1554 15.312 77.1874 15.104C77.2354 14.896 77.2514 14.72 77.2354 14.576C77.2994 14.352 77.3554 14.16 77.4034 14C77.4514 13.824 77.4754 13.704 77.4754 13.64C77.4594 13.56 77.4514 13.448 77.4514 13.304C77.4514 13.16 77.4354 13.04 77.4034 12.944C77.4834 12.72 77.5554 12.424 77.6194 12.056C77.6834 11.672 77.7314 11.328 77.7634 11.024C77.8114 10.704 77.8354 10.544 77.8354 10.544C77.8354 10.544 77.7474 10.648 77.5714 10.856C77.4114 11.048 77.1954 11.32 76.9234 11.672C76.6514 12.024 76.3554 12.432 76.0354 12.896C75.5874 13.616 75.1874 14.224 74.8354 14.72C74.4834 15.216 74.1634 15.688 73.8754 16.136C73.5874 16.568 73.3234 17.048 73.0834 17.576C73.0674 17.72 72.9714 17.92 72.7954 18.176C72.6194 18.416 72.4354 18.68 72.2434 18.968C72.0834 19.32 71.9234 19.56 71.7634 19.688C71.6194 19.8 71.4434 19.88 71.2354 19.928C70.7554 19.992 70.3954 19.792 70.1554 19.328C69.9154 18.864 69.7474 18.032 69.6514 16.832C69.5554 16.448 69.4834 16.048 69.4354 15.632C69.4034 15.216 69.3714 14.944 69.3394 14.816C69.3714 14.592 69.3874 14.344 69.3874 14.072C69.4034 13.784 69.4034 13.536 69.3874 13.328C69.3874 13.104 69.3874 12.992 69.3874 12.992C69.3874 12.992 69.3234 13.064 69.1954 13.208C69.0834 13.336 68.9634 13.488 68.8354 13.664C68.8194 13.856 68.7794 14.048 68.7154 14.24C68.6514 14.432 68.5954 14.56 68.5474 14.624C68.4674 14.768 68.3474 15.064 68.1874 15.512C68.0434 15.944 67.8674 16.4 67.6594 16.88C67.4674 17.52 67.3074 18.008 67.1794 18.344C67.0674 18.68 66.9714 18.952 66.8914 19.16C66.8114 19.352 66.7234 19.552 66.6274 19.76C66.5314 19.968 66.4114 20.256 66.2674 20.624C66.1234 20.944 65.9874 21.288 65.8594 21.656C65.7474 22.024 65.6514 22.256 65.5714 22.352C65.5394 22.416 65.4594 22.576 65.3314 22.832C65.2034 23.072 65.0994 23.304 65.0194 23.528C64.7954 23.976 64.6034 24.24 64.4434 24.32C64.2834 24.4 64.0434 24.312 63.7234 24.056C63.4194 23.912 63.2754 23.712 63.2914 23.456C63.3074 23.216 63.4514 22.88 63.7234 22.448C63.8514 22.112 64.0514 21.712 64.3234 21.248C64.5954 20.784 64.8114 20.392 64.9714 20.072C64.9554 20.008 65.0434 19.728 65.2354 19.232C65.4274 18.736 65.6434 18.16 65.8834 17.504C66.1394 16.88 66.3714 16.288 66.5794 15.728C66.8034 15.152 66.9874 14.672 67.1314 14.288C67.2754 13.888 67.3554 13.664 67.3714 13.616C67.3714 13.552 67.3874 13.488 67.4194 13.424C67.4514 13.36 67.4994 13.256 67.5634 13.112C67.5954 13 67.6514 12.856 67.7314 12.68C67.8114 12.488 67.8674 12.352 67.8994 12.272C67.9794 12.16 68.0434 12.048 68.0914 11.936C68.1554 11.808 68.1714 11.712 68.1394 11.648C68.1234 11.6 68.1394 11.568 68.1874 11.552C68.2514 11.536 68.2834 11.528 68.2834 11.528C68.3474 11.528 68.3794 11.496 68.3794 11.432C68.3794 11.368 68.4034 11.304 68.4514 11.24C68.4834 11.032 68.5394 10.816 68.6194 10.592C68.6994 10.352 68.7714 10.224 68.8354 10.208C68.8994 10.192 68.9314 10.16 68.9314 10.112C68.9314 10.048 68.9634 9.96 69.0274 9.848C69.0114 9.736 69.0114 9.632 69.0274 9.536C69.0594 9.44 69.0754 9.376 69.0754 9.344C69.1554 9.232 69.2274 9.144 69.2914 9.08C69.3554 9.016 69.4114 8.952 69.4594 8.888C69.4594 8.888 69.4914 8.792 69.5554 8.6C69.6194 8.408 69.6994 8.24 69.7954 8.096C69.8274 8 69.8674 7.896 69.9154 7.784C69.9794 7.672 70.0434 7.56 70.1074 7.448C70.1714 7.336 70.2194 7.248 70.2514 7.184C70.3634 6.976 70.5314 6.88 70.7554 6.896C70.9794 6.912 71.2434 7.072 71.5474 7.376C71.6914 7.488 71.7874 7.608 71.8354 7.736C71.8994 7.848 71.8994 7.944 71.8354 8.024C71.8354 8.024 71.8114 8.032 71.7634 8.048C71.7314 8.048 71.7154 8.088 71.7154 8.168C71.7154 8.168 71.7234 8.256 71.7394 8.432C71.7554 8.592 71.7314 8.776 71.6674 8.984C71.5554 9.384 71.4514 9.784 71.3554 10.184C71.2754 10.584 71.2034 10.928 71.1394 11.216C71.0914 11.488 71.0674 11.656 71.0674 11.72C71.0674 11.784 71.0594 11.848 71.0434 11.912C71.0274 11.976 70.9794 12.008 70.8994 12.008C70.8994 12.008 70.8834 12.04 70.8514 12.104C70.8194 12.152 70.8034 12.2 70.8034 12.248C70.8834 12.376 70.9074 12.576 70.8754 12.848C70.8434 13.104 70.8034 13.368 70.7554 13.64C70.7234 14.136 70.7154 14.68 70.7314 15.272C70.7474 15.864 70.7794 16.376 70.8274 16.808C70.8914 17.24 70.9634 17.48 71.0434 17.528C71.1074 17.528 71.2274 17.432 71.4034 17.24C71.5794 17.032 71.7794 16.712 72.0034 16.28C72.2914 15.832 72.5074 15.48 72.6514 15.224C72.8114 14.968 72.9554 14.752 73.0834 14.576C73.2114 14.384 73.3554 14.176 73.5154 13.952C73.6914 13.712 73.9314 13.392 74.2354 12.992C74.4914 12.56 74.7474 12.184 75.0034 11.864C75.2754 11.544 75.4514 11.352 75.5314 11.288C75.6594 11.256 75.7474 11.184 75.7954 11.072C75.8594 10.944 75.8914 10.88 75.8914 10.88C75.8434 10.784 75.8834 10.624 76.0114 10.4C76.1394 10.176 76.3234 9.896 76.5634 9.56C76.8194 9.208 77.0914 8.816 77.3794 8.384C77.6514 8.032 77.8834 7.784 78.0754 7.64C78.2834 7.496 78.4834 7.448 78.6754 7.496C78.8674 7.528 79.0754 7.64 79.2994 7.832C79.4754 7.96 79.6114 8.112 79.7074 8.288C79.8034 8.448 79.8514 8.592 79.8514 8.72C79.8674 8.848 79.8274 8.928 79.7314 8.96C79.6674 8.976 79.6354 8.992 79.6354 9.008C79.6514 9.008 79.6914 9.04 79.7554 9.104C79.7554 9.104 79.7394 9.168 79.7074 9.296C79.6914 9.424 79.6674 9.608 79.6354 9.848C79.5714 9.976 79.5154 10.232 79.4674 10.616C79.4194 10.984 79.3554 11.328 79.2754 11.648C79.2114 11.904 79.1554 12.184 79.1074 12.488C79.0594 12.776 79.0194 12.992 78.9874 13.136C78.9554 13.232 78.9154 13.408 78.8674 13.664C78.8194 13.904 78.7794 14.136 78.7474 14.36C78.6994 14.696 78.6434 15.112 78.5794 15.608C78.5314 16.104 78.4754 16.608 78.4114 17.12C78.3474 17.632 78.2914 18.088 78.2434 18.488C78.1954 18.872 78.1554 19.12 78.1234 19.232C78.1074 19.408 78.0834 19.672 78.0514 20.024C78.0354 20.376 78.0194 20.752 78.0034 21.152C78.0034 21.552 78.0114 21.936 78.0274 22.304C78.0594 22.672 78.0994 22.96 78.1474 23.168C78.1634 23.504 78.1794 23.72 78.1954 23.816C78.2114 23.912 78.2034 24 78.1714 24.08C78.0274 24.24 77.8914 24.336 77.7634 24.368C77.6514 24.4 77.4754 24.36 77.2354 24.248ZM84.7944 23.336C84.5064 23.288 84.2024 23.176 83.8824 23C83.5624 22.84 83.2744 22.656 83.0184 22.448C82.7784 22.224 82.6104 22.008 82.5144 21.8C82.2264 21.304 82.0584 20.776 82.0104 20.216C81.9624 19.64 82.0664 19.104 82.3224 18.608C82.3544 18.432 82.3784 18.24 82.3944 18.032C82.4264 17.824 82.4424 17.648 82.4424 17.504C82.4424 17.504 82.4664 17.472 82.5144 17.408C82.5784 17.328 82.6104 17.288 82.6104 17.288C82.6584 17.288 82.6904 17.264 82.7064 17.216C82.7224 17.168 82.7464 17.104 82.7784 17.024C82.8424 16.912 82.8904 16.832 82.9224 16.784C82.9704 16.736 82.9944 16.712 82.9944 16.712C83.0904 16.712 83.1464 16.68 83.1624 16.616C83.1784 16.536 83.1784 16.36 83.1624 16.088C83.1464 16.024 83.1464 15.968 83.1624 15.92C83.1784 15.872 83.1864 15.824 83.1864 15.776C83.2664 15.696 83.3304 15.632 83.3784 15.584C83.4264 15.536 83.4504 15.48 83.4504 15.416C83.5144 15.368 83.5704 15.328 83.6184 15.296C83.6824 15.264 83.7144 15.248 83.7144 15.248C83.8104 15.28 83.8584 15.288 83.8584 15.272C83.8744 15.24 83.9144 15.2 83.9784 15.152C83.9784 15.072 84.0264 14.904 84.1224 14.648C84.2344 14.392 84.3544 14.112 84.4824 13.808C84.6104 13.504 84.7064 13.256 84.7704 13.064C85.3624 11.992 85.9224 11.088 86.4504 10.352C86.9784 9.6 87.4824 9 87.9624 8.552C88.4584 8.088 88.9304 7.76 89.3784 7.568C89.4584 7.536 89.5784 7.52 89.7384 7.52C89.9144 7.504 90.0824 7.488 90.2424 7.472C90.4664 7.472 90.7144 7.512 90.9864 7.592C91.2584 7.656 91.4984 7.728 91.7064 7.808C91.9144 7.872 92.0264 7.928 92.0424 7.976C92.0424 8.04 92.0664 8.08 92.1144 8.096C92.1624 8.112 92.1864 8.12 92.1864 8.12C92.2824 8.104 92.4024 8.192 92.5464 8.384C92.6904 8.576 92.8424 8.816 93.0024 9.104C93.1784 9.392 93.3224 9.68 93.4344 9.968C93.6104 10.224 93.7064 10.6 93.7224 11.096C93.7384 11.592 93.7304 12.08 93.6984 12.56C93.6504 12.912 93.5784 13.304 93.4824 13.736C93.3864 14.168 93.2824 14.568 93.1704 14.936C93.0744 15.288 92.9944 15.544 92.9304 15.704C92.9144 15.752 92.8744 15.856 92.8104 16.016C92.7624 16.176 92.7064 16.336 92.6424 16.496C92.5944 16.656 92.5544 16.776 92.5224 16.856C92.3784 17.272 92.1784 17.736 91.9224 18.248C91.6824 18.744 91.4184 19.224 91.1304 19.688C90.8424 20.152 90.5624 20.536 90.2904 20.84C90.0184 21.144 89.7864 21.304 89.5944 21.32C89.5944 21.32 89.5784 21.328 89.5464 21.344C89.5304 21.36 89.5224 21.4 89.5224 21.464C89.5224 21.496 89.3944 21.624 89.1384 21.848C88.8984 22.072 88.6264 22.304 88.3224 22.544C88.0344 22.768 87.8184 22.936 87.6744 23.048C87.3384 23.16 86.9864 23.248 86.6184 23.312C86.2664 23.392 85.9304 23.432 85.6104 23.432C85.2904 23.432 85.0184 23.4 84.7944 23.336ZM84.9144 22.04C85.4424 22.04 85.9304 21.984 86.3784 21.872C86.8424 21.744 87.2904 21.536 87.7224 21.248C88.1704 20.944 88.6104 20.536 89.0424 20.024C89.1224 19.848 89.2104 19.688 89.3064 19.544C89.4024 19.4 89.4504 19.328 89.4504 19.328C89.5464 19.312 89.5944 19.264 89.5944 19.184C89.5944 19.184 89.6104 19.128 89.6424 19.016C89.6744 18.888 89.7224 18.792 89.7864 18.728C89.9464 18.6 90.0824 18.496 90.1944 18.416C90.3224 18.32 90.3864 18.272 90.3864 18.272C90.3864 18.224 90.4104 18.104 90.4584 17.912C90.5224 17.72 90.5944 17.528 90.6744 17.336C90.7544 17.144 90.8184 17.032 90.8664 17C90.8984 16.968 90.9704 16.792 91.0824 16.472C91.2104 16.136 91.3304 15.76 91.4424 15.344C91.5704 14.912 91.6344 14.56 91.6344 14.288C91.7144 14.208 91.7784 14.128 91.8264 14.048C91.8904 13.952 91.9224 13.904 91.9224 13.904C91.9864 13.856 92.0104 13.808 91.9944 13.76C91.9944 13.696 91.9944 13.592 91.9944 13.448C91.9944 13.224 92.0104 13.064 92.0424 12.968C92.0744 12.872 92.0904 12.824 92.0904 12.824C92.1704 12.744 92.2104 12.696 92.2104 12.68C92.2264 12.648 92.2184 12.624 92.1864 12.608C91.9784 12.48 91.9784 12.392 92.1864 12.344C92.2184 12.264 92.2264 12.104 92.2104 11.864C92.1944 11.608 92.1624 11.328 92.1144 11.024C92.0824 10.704 92.0344 10.408 91.9704 10.136C91.9224 9.848 91.8744 9.648 91.8264 9.536C91.6984 9.36 91.5304 9.24 91.3224 9.176C91.1304 9.096 90.8184 9.12 90.3864 9.248C89.9064 9.36 89.5224 9.536 89.2344 9.776C88.9464 10.016 88.5704 10.376 88.1064 10.856C88.0424 11.096 87.9544 11.296 87.8424 11.456C87.7304 11.616 87.6504 11.696 87.6024 11.696C87.5384 11.696 87.4744 11.744 87.4104 11.84C87.3464 11.936 87.3064 12.056 87.2904 12.2C87.0184 12.36 86.8184 12.504 86.6904 12.632C86.5624 12.744 86.4824 12.84 86.4504 12.92C86.2904 13.176 86.0904 13.552 85.8504 14.048C85.6264 14.528 85.3864 15.064 85.1304 15.656C84.8904 16.232 84.6584 16.808 84.4344 17.384C84.2264 17.96 84.0504 18.488 83.9064 18.968C83.7624 19.432 83.6744 19.784 83.6424 20.024C83.5144 20.36 83.4664 20.688 83.4984 21.008C83.5304 21.312 83.6184 21.48 83.7624 21.512C83.8904 21.656 84.0744 21.776 84.3144 21.872C84.5544 21.968 84.7544 22.024 84.9144 22.04ZM95.8847 24.44C95.8207 24.6 95.7007 24.688 95.5247 24.704C95.3647 24.72 95.1487 24.624 94.8767 24.416C94.6847 24.224 94.5567 24.072 94.4927 23.96C94.4447 23.864 94.4767 23.688 94.5887 23.432C94.7007 23.192 94.8927 22.76 95.1647 22.136C95.2287 21.752 95.3407 21.368 95.5007 20.984C95.6607 20.584 95.7807 20.304 95.8607 20.144C95.9247 19.92 96.0527 19.552 96.2447 19.04C96.4527 18.512 96.6847 17.928 96.9407 17.288C97.2127 16.648 97.4687 16.048 97.7087 15.488C97.9487 14.912 98.1247 14.48 98.2367 14.192C98.5087 13.552 98.7887 12.88 99.0767 12.176C99.3647 11.472 99.7567 10.584 100.253 9.512C100.317 9.352 100.349 9.184 100.349 9.008C100.365 8.832 100.237 8.744 99.9647 8.744C99.8047 8.568 99.7167 8.392 99.7007 8.216C99.6847 8.024 99.7647 7.888 99.9407 7.808L101.189 7.304C101.941 7.128 102.709 7.08 103.493 7.16C104.293 7.224 105.045 7.44 105.749 7.808C106.517 8.256 107.061 8.712 107.381 9.176C107.701 9.624 107.861 10.08 107.861 10.544C107.877 11.008 107.797 11.464 107.621 11.912C107.493 12.248 107.245 12.616 106.877 13.016C106.525 13.416 106.109 13.816 105.629 14.216C105.165 14.616 104.677 14.984 104.165 15.32C103.669 15.64 103.205 15.888 102.773 16.064C102.373 16.256 101.957 16.424 101.525 16.568C101.093 16.712 100.645 16.856 100.181 17C99.9247 17.064 99.6207 17.096 99.2687 17.096C98.9167 17.096 98.6527 17.064 98.4767 17L98.0687 18.128C97.9087 18.704 97.6287 19.56 97.2287 20.696C96.8447 21.832 96.3967 23.08 95.8847 24.44ZM105.413 24.704C105.285 24.752 105.133 24.768 104.957 24.752C104.797 24.736 104.533 24.608 104.165 24.368C103.461 23.952 102.757 23.448 102.053 22.856C101.349 22.264 100.557 21.464 99.6767 20.456C99.3407 20.056 99.0527 19.688 98.8127 19.352C98.5887 19.016 98.3487 18.544 98.0927 17.936L97.7567 16.64L98.4047 16.28L99.2687 17.144C99.5247 17.704 99.8527 18.24 100.253 18.752C100.669 19.264 101.053 19.72 101.405 20.12C101.693 20.456 102.085 20.864 102.581 21.344C103.077 21.808 103.605 22.256 104.165 22.688C104.725 23.12 105.229 23.448 105.677 23.672C105.773 23.752 105.805 23.872 105.773 24.032C105.741 24.192 105.685 24.336 105.605 24.464C105.541 24.608 105.477 24.688 105.413 24.704ZM99.2207 15.776C99.5887 15.744 100.021 15.656 100.517 15.512C101.013 15.352 101.509 15.168 102.005 14.96C102.469 14.736 102.957 14.472 103.469 14.168C103.997 13.848 104.485 13.496 104.933 13.112C105.381 12.728 105.741 12.328 106.013 11.912C106.301 11.496 106.429 11.08 106.397 10.664C106.397 10.456 106.317 10.24 106.157 10.016C105.997 9.792 105.805 9.592 105.581 9.416C105.357 9.24 105.141 9.12 104.933 9.056C104.293 8.896 103.765 8.792 103.349 8.744C102.933 8.696 102.613 8.728 102.389 8.84C102.165 8.936 102.013 9.144 101.933 9.464C101.933 9.512 101.869 9.672 101.741 9.944C101.613 10.216 101.453 10.552 101.261 10.952C101.085 11.352 100.909 11.776 100.733 12.224C100.269 13.168 99.9167 13.888 99.6767 14.384C99.4367 14.864 99.2847 15.2 99.2207 15.392C99.1567 15.584 99.1567 15.712 99.2207 15.776ZM111.451 23.576C110.955 23.544 110.515 23.392 110.131 23.12C109.763 22.848 109.371 22.568 108.955 22.28C108.683 22.008 108.467 21.72 108.307 21.416C108.147 21.096 108.019 20.68 107.923 20.168C107.859 19.864 107.859 19.48 107.923 19.016C107.987 18.552 108.091 18.088 108.235 17.624C108.379 17.144 108.515 16.76 108.643 16.472C108.835 16.024 109.075 15.544 109.363 15.032C109.667 14.504 109.963 14.008 110.251 13.544C110.555 13.064 110.795 12.68 110.971 12.392C111.083 12.28 111.131 12.224 111.115 12.224C111.115 12.208 111.115 12.2 111.115 12.2C111.115 12.12 111.195 11.92 111.355 11.6C111.531 11.264 111.683 10.968 111.811 10.712C112.051 10.456 112.187 10.248 112.219 10.088C112.251 9.928 112.227 9.8 112.147 9.704C112.115 9.64 112.171 9.528 112.315 9.368C112.459 9.208 112.675 9.024 112.963 8.816C113.251 8.608 113.579 8.4 113.947 8.192C114.331 7.888 114.699 7.728 115.051 7.712C115.419 7.68 115.635 7.752 115.699 7.928C115.699 7.976 115.787 7.992 115.963 7.976C116.155 7.944 116.371 7.904 116.611 7.856C116.867 7.792 117.091 7.744 117.283 7.712C117.363 7.616 117.547 7.544 117.835 7.496C118.139 7.432 118.491 7.376 118.891 7.328C119.099 7.344 119.299 7.352 119.491 7.352C119.699 7.336 119.867 7.32 119.995 7.304C120.139 7.288 120.211 7.28 120.211 7.28C120.323 7.248 120.451 7.264 120.595 7.328C120.755 7.392 120.899 7.568 121.027 7.856C121.139 8.144 121.099 8.36 120.907 8.504C120.731 8.648 120.315 8.76 119.659 8.84C119.179 8.904 118.763 8.96 118.411 9.008C118.059 9.04 117.691 9.088 117.307 9.152C116.923 9.2 116.451 9.288 115.891 9.416C115.491 9.496 115.163 9.592 114.907 9.704C114.651 9.8 114.427 9.952 114.235 10.16C114.043 10.352 113.827 10.632 113.587 11C113.475 11.08 113.331 11.288 113.155 11.624C112.979 11.96 112.803 12.296 112.627 12.632C112.179 13.256 111.787 13.8 111.451 14.264C111.131 14.712 111.003 14.976 111.067 15.056C111.067 15.056 111.155 15.08 111.331 15.128C111.507 15.176 111.627 15.2 111.691 15.2C111.851 15.12 112.043 15.064 112.267 15.032C112.507 15 112.699 14.968 112.843 14.936C113.835 14.68 114.611 14.48 115.171 14.336C115.747 14.192 116.179 14.088 116.467 14.024C116.771 13.944 117.003 13.896 117.163 13.88C117.387 13.704 117.603 13.672 117.811 13.784C118.035 13.896 118.211 14.072 118.339 14.312C118.419 14.488 118.419 14.64 118.339 14.768C118.275 14.896 118.075 15.024 117.739 15.152C117.419 15.28 116.939 15.432 116.299 15.608C115.659 15.784 114.819 16.016 113.779 16.304C112.899 16.56 112.147 16.712 111.523 16.76C110.899 16.808 110.603 16.672 110.635 16.352C110.523 16.288 110.395 16.368 110.251 16.592C110.123 16.8 109.995 17.088 109.867 17.456C109.739 17.824 109.627 18.216 109.531 18.632C109.451 19.048 109.395 19.44 109.363 19.808C109.347 20.16 109.371 20.424 109.435 20.6C109.563 20.968 109.731 21.264 109.939 21.488C110.147 21.696 110.523 21.88 111.067 22.04C111.387 22.056 111.699 22.08 112.003 22.112C112.307 22.144 112.651 22.08 113.035 21.92C113.979 21.76 114.723 21.592 115.267 21.416C115.811 21.24 116.123 21.12 116.203 21.056C116.331 20.992 116.411 20.96 116.443 20.96C116.491 20.944 116.555 20.936 116.635 20.936C116.587 21.016 116.603 21.024 116.683 20.96C116.779 20.88 116.907 20.76 117.067 20.6C117.243 20.44 117.475 20.288 117.763 20.144C118.051 20 118.307 19.888 118.531 19.808C118.771 19.728 118.899 19.728 118.915 19.808C119.011 19.968 118.995 20.192 118.867 20.48C118.739 20.752 118.507 21.056 118.171 21.392C117.835 21.712 117.403 22.024 116.875 22.328C116.027 22.776 115.107 23.088 114.115 23.264C113.123 23.456 112.235 23.56 111.451 23.576Z" fill="white"/>
</svg>
